<?xml version="1.0" encoding="utf-8"?>
<!-- Generator: Adobe Illustrator 23.1.0, SVG Export Plug-In . SVG Version: 6.00 Build 0)  -->
<svg version="1.1" id="Ebene_1" xmlns="http://www.w3.org/2000/svg" xmlns:xlink="http://www.w3.org/1999/xlink" x="0px" y="0px"
	 viewBox="0 0 25 25" style="enable-background:new 0 0 25 25;" xml:space="preserve">
<style type="text/css">
	.st0{fill:#5EB990;}
	.st1{fill:#063A38;}
</style>
<g>

		<image style="overflow:visible;opacity:0.55;" width="128" height="147" xlink:href="A3CD61C1.png"  transform="matrix(0.24 0 0 0.24 -2.4408 -2.3712)">
	</image>
	<g>
		<g>
			<g>
				<path class="st0" d="M16.7,17.4C16.7,17.4,16.7,17.4,16.7,17.4c-0.3,0.4-0.6,0.8-0.9,1.1c-0.7,0.9-1.4,1.8-2,2.6
					c0,0.1-0.4,0.4-0.6,0.8c-0.2,0.2-0.5,0.2-0.7,0c-1.2-1.6-2.4-3.2-3.6-4.7v0c0,0,0,0,0,0c-0.1-0.2-0.3-0.3-0.4-0.5
					c-1.4-1.8-2.9-3.9-2.9-6.3c0-3.8,3-7,6.7-7.3c3.5-0.3,6.6,2.1,7.6,5.4C20.9,11.9,18.7,14.8,16.7,17.4z"/>
			</g>
			<g>
				<path class="st1" d="M16.7,17.4c-0.3,0.4-0.6,0.7-0.8,1.1c-0.7,0.9-1.4,1.8-2,2.6c0,0.1-0.4,0.4-0.6,0.8c-0.2,0.2-0.5,0.2-0.7,0
					c-1.2-1.6-2.4-3.2-3.6-4.7v0c0,0,0-0.1,0-0.1L9.7,15H8.9l2.3-4.4h-0.9L12.5,7c0.1-0.2,0.3-0.2,0.4,0l2.3,3.6h-0.9l2.3,4.4h-0.8
					L16.7,17.4C16.7,17.3,16.7,17.4,16.7,17.4z"/>
			</g>
		</g>
	</g>
</g>
</svg>
