<?xml version="1.0" encoding="utf-8"?>
<!-- Generator: Adobe Illustrator 23.1.0, SVG Export Plug-In . SVG Version: 6.00 Build 0)  -->
<svg version="1.1" id="Ebene_1" xmlns="http://www.w3.org/2000/svg" xmlns:xlink="http://www.w3.org/1999/xlink" x="0px" y="0px"
	 viewBox="0 0 25 25" style="enable-background:new 0 0 25 25;" xml:space="preserve">
<style type="text/css">
	.st0{fill:#C55F42;}
	.st1{fill:#063A38;}
</style>
<path class="st0" d="M17.4,18.2C17.4,18.2,17.4,18.2,17.4,18.2c-0.4,0.5-0.7,0.9-1,1.3c-0.8,1-1.6,2.1-2.4,3.1
	c0,0.1-0.4,0.5-0.7,0.9c-0.2,0.3-0.6,0.3-0.8,0c-1.4-1.9-2.8-3.7-4.2-5.6v0c0,0,0,0,0-0.1c-0.2-0.2-0.3-0.4-0.5-0.6
	c-1.6-2.1-3.4-4.6-3.4-7.4c0-4.5,3.5-8.2,7.9-8.5c4.1-0.3,7.8,2.5,8.9,6.4C22.3,11.8,19.8,15.2,17.4,18.2z"/>
<path class="st1" d="M17.4,18.3c-0.3,0.4-0.7,0.9-1,1.3c-0.8,1-1.6,2.1-2.4,3.1c0,0.1-0.4,0.5-0.7,0.9c-0.2,0.3-0.6,0.3-0.8,0
	c-1.4-1.9-2.8-3.7-4.2-5.6v0c0,0,0-0.1,0-0.1l1-2.4h-1l2.7-5.2H9.8L12.5,6c0.1-0.2,0.4-0.2,0.5,0l2.7,4.2h-1.1l2.7,5.2h-1l1.1,2.8
	C17.3,18.2,17.4,18.2,17.4,18.3z"/>
</svg>
