<?xml version="1.0" encoding="utf-8"?>
<!-- Generator: Adobe Illustrator 23.1.0, SVG Export Plug-In . SVG Version: 6.00 Build 0)  -->
<svg version="1.1" id="Ebene_1" xmlns="http://www.w3.org/2000/svg" xmlns:xlink="http://www.w3.org/1999/xlink" x="0px" y="0px"
	 viewBox="0 0 15 15" style="enable-background:new 0 0 15 15;" xml:space="preserve">
<g>
	<path d="M3.4,14.6c0.2,0,0.5-0.1,0.6-0.3l7.1-6.1c0.2-0.2,0.4-0.5,0.4-0.8c0-0.3-0.1-0.6-0.4-0.8L4,0.7C3.8,0.5,3.6,0.4,3.3,0.4
		C3,0.4,2.7,0.5,2.6,0.7C2.4,1,2.3,1.2,2.3,1.5c0,0.3,0.2,0.5,0.4,0.7l6.2,5.3l-6.2,5.3c-0.3,0.3-0.5,0.7-0.3,1.1
		C2.6,14.4,3,14.6,3.4,14.6L3.4,14.6z M3.4,14.6"/>
</g>
</svg>
