<?xml version="1.0"?>
<svg xmlns="http://www.w3.org/2000/svg" height="512px" viewBox="0 0 368.00599 368" width="512px"><path d="m360 351.648438h-104v-112h104c2.777344 0 5.34375-1.441407 6.808594-3.792969 1.464844-2.359375 1.589844-5.304688.351562-7.785157l-112-224c-2.71875-5.421874-11.59375-5.421874-14.3125 0l-88.847656 177.6875-40.839844-81.6875c-2.71875-5.421874-11.59375-5.421874-14.3125 0l-96 192c-1.238281 2.480469-1.113281 5.425782.351563 7.785157 1.457031 2.351562 4.023437 3.792969 6.800781 3.792969h88v48h-88c-4.425781 0-8 3.582031-8 8 0 4.414062 3.574219 8 8 8h352c4.425781 0 8-3.585938 8-8 0-4.417969-3.574219-8-8-8zm-112-326.113282 99.054688 198.113282h-91.054688v-20.6875l29.65625-29.65625c3.128906-3.128907 3.128906-8.1875 0-11.3125-3.128906-3.128907-8.183594-3.128907-11.3125 0l-18.34375 18.34375v-44.6875c0-4.417969-3.574219-8-8-8s-8 3.582031-8 8v44.6875l-18.34375-18.34375c-3.128906-3.128907-8.183594-3.128907-11.3125 0-3.128906 3.125-3.128906 8.183593 0 11.3125l29.65625 29.65625v20.6875h-91.054688l10.207032-20.425782zm-144 96 39.054688 78.113282-14.207032 28.421874c-1.238281 2.480469-1.113281 5.425782.351563 7.785157 1.457031 2.351562 4.023437 3.792969 6.800781 3.792969h27.054688l24 48h-166.109376zm8 182.113282h88c2.777344 0 5.34375-1.441407 6.808594-3.792969 1.464844-2.359375 1.589844-5.304688.351562-7.785157l-26.214844-52.421874h59.054688v112h-128zm0 0" fill="#004239"/></svg>
