<?xml version="1.0"?>
<svg xmlns="http://www.w3.org/2000/svg" height="512px" viewBox="0 0 368 368" width="512px"><path d="m368 184c0-48.519531-39.480469-88-88-88-3.207031 0-6.457031.207031-9.710938.574219-8.015624-54.988281-43.648437-96.574219-86.289062-96.574219s-78.273438 41.585938-86.289062 96.574219c-3.253907-.367188-6.503907-.574219-9.710938-.574219-48.519531 0-88 39.480469-88 88 0 45.824219 35.214844 83.535156 80 87.59375v80.40625h-72c-4.425781 0-8 3.574219-8 8s3.574219 8 8 8h352c4.425781 0 8-3.574219 8-8s-3.574219-8-8-8h-72v-80.40625c44.785156-4.058594 80-41.769531 80-87.59375zm-96.183594-71.519531c43.085938-5.066407 80.183594 29.113281 80.183594 71.519531 0 39.703125-32.296875 72-72 72-22.800781 0-43.609375-10.414062-57.113281-28.222656 13.671875-9.160156 25.121093-23.042969 33.546875-39.785156.34375-.679688.679687-1.359376 1.007812-2.046876 1.125-2.335937 2.191406-4.722656 3.191406-7.160156.296876-.722656.625-1.417968.910157-2.144531 1.097656-2.785156 2.089843-5.648437 3.023437-8.542969.425782-1.328125.808594-2.671875 1.203125-4.027344.542969-1.871093 1.054688-3.765624 1.527344-5.6875.34375-1.382812.695313-2.757812 1.007813-4.160156.664062-3.039062 1.253906-6.109375 1.742187-9.222656.167969-1.054688.28125-2.136719.425781-3.207031.34375-2.527344.632813-5.074219.855469-7.648438.097656-1.121093.191406-2.242187.265625-3.375.246094-3.570312.40625-7.152343.40625-10.769531 0-2.511719-.0625-5.03125-.183594-7.519531zm-87.816406-96.480469c36.535156 0 66.726562 39.535156 71.328125 90.527344 0 .015625-.007813.03125-.007813.058594.457032 4.359374.679688 8.886718.679688 13.414062 0 3.207031-.136719 6.367188-.335938 9.503906-.070312 1.128906-.175781 2.230469-.28125 3.351563-.167968 1.960937-.375 3.914062-.613281 5.839843-.167969 1.34375-.34375 2.679688-.554687 4.007813-.253906 1.640625-.558594 3.25-.863282 4.855469-.75 3.921875-1.617187 7.777344-2.671874 11.511718-.015626.058594-.023438.121094-.046876.175782-.496093 1.746094-1.066406 3.441406-1.625 5.136718-.320312.96875-.625 1.9375-.960937 2.882813-.589844 1.671875-1.222656 3.308594-1.878906 4.925781-.359375.90625-.742188 1.785156-1.128907 2.671875-.695312 1.617188-1.40625 3.226563-2.167968 4.785157-.335938.6875-.703125 1.34375-1.046875 2.023437-1.566407 3.070313-3.257813 6.015625-5.054688 8.824219-.394531.609375-.761719 1.246094-1.160156 1.839844-.867187 1.289062-1.785156 2.511718-2.699219 3.734374-.597656.808594-1.207031 1.617188-1.820312 2.402344-.914063 1.144532-1.851563 2.253906-2.808594 3.335938-.664062.75-1.351562 1.480468-2.035156 2.199218-.980469 1.039063-1.972656 2.082032-3 3.046876-.628906.601562-1.292969 1.136718-1.941406 1.714843-2.066407 1.816407-4.199219 3.488281-6.410157 5.015625-.65625.453125-1.300781.941406-1.964843 1.375-1.105469.703125-2.242188 1.3125-3.371094 1.945313-5.566406 3.070312-11.4375 5.230469-17.566406 6.214843v-52.007812l29.65625-29.65625c3.128906-3.128906 3.128906-8.183594 0-11.3125-3.128907-3.128906-8.183594-3.128906-11.3125 0l-18.335938 18.34375v-44.6875c0-4.425781-3.574219-8-8-8s-8 3.574219-8 8v44.6875l-18.34375-18.34375c-3.128906-3.128906-8.183594-3.128906-11.3125 0s-3.128906 8.183594 0 11.3125l29.65625 29.65625v52.007812c-6.128906-.984374-12.007812-3.144531-17.574219-6.222656-1.128906-.625-2.265625-1.242187-3.363281-1.9375-.671875-.433594-1.320312-.929687-1.984375-1.382812-2.199219-1.519532-4.335937-3.191406-6.390625-5.007813-.648438-.570312-1.3125-1.113281-1.945312-1.714843-1.023438-.964844-2.015626-2.007813-3-3.046876-.6875-.71875-1.367188-1.441406-2.03125-2.199218-.949219-1.082032-1.886719-2.191406-2.808594-3.335938-.621094-.777344-1.222656-1.59375-1.824219-2.402344-.910156-1.222656-1.820313-2.445312-2.695313-3.734374-.398437-.59375-.765624-1.230469-1.160156-1.839844-1.796875-2.808594-3.488281-5.753906-5.054687-8.824219-.34375-.679687-.710938-1.335937-1.046875-2.023437-.761719-1.558594-1.464844-3.167969-2.167969-4.785157-.386719-.878906-.761719-1.765625-1.128906-2.671875-.65625-1.617187-1.289063-3.253906-1.878907-4.925781-.335937-.953125-.648437-1.929687-.96875-2.90625-.5625-1.695313-1.121093-3.375-1.617187-5.121094-.144531-.519531-.261719-1.054687-.398437-1.582031-.898438-3.296875-1.65625-6.679688-2.320313-10.113281-.304687-1.605469-.617187-3.214844-.863281-4.855469-.210938-1.328125-.386719-2.664062-.554688-4.007812-.238281-1.925782-.445312-3.871094-.613281-5.839844-.097656-1.113282-.210937-2.222656-.28125-3.351563-.191406-3.121093-.328125-6.28125-.328125-9.488281 0-4.527344.222656-9.054688.679688-13.425781 0-.015625-.007813-.03125-.007813-.054688 4.601563-50.984375 34.792969-90.519531 71.328125-90.519531zm-168 168c0-39.703125 32.296875-72 72-72 2.703125 0 5.441406.160156 8.183594.480469-.121094 2.488281-.183594 5.007812-.183594 7.519531 0 3.617188.160156 7.199219.398438 10.761719.074218 1.125.167968 2.246093.265624 3.375.222657 2.566406.511719 5.121093.855469 7.648437.144531 1.070313.257813 2.144532.425781 3.207032.488282 3.121093 1.078126 6.191406 1.742188 9.222656.304688 1.410156.664062 2.777344 1.007812 4.160156.480469 1.914062.984376 3.808594 1.527344 5.6875.394532 1.351562.777344 2.699219 1.203125 4.027344.933594 2.902344 1.925781 5.757812 3.023438 8.542968.285156.726563.605469 1.421876.910156 2.144532 1.007813 2.4375 2.074219 4.824218 3.191406 7.160156.335938.6875.664063 1.367188 1.007813 2.046875 8.425781 16.742187 19.875 30.625 33.546875 39.785156-13.496094 17.816407-34.304688 28.230469-57.105469 28.230469-39.703125 0-72-32.296875-72-72zm80 87.488281c25.609375-2.28125 48.449219-15.398437 63.34375-36.367187 5.367188 2.144531 10.929688 3.621094 16.65625 4.328125v112.550781h-80zm96 80.511719v-112.550781c5.726562-.714844 11.296875-2.191407 16.65625-4.328125 14.886719 20.96875 37.726562 34.085937 63.34375 36.367187v80.511719zm0 0" fill="#004239"/></svg>
