<?xml version="1.0"?>
<svg xmlns="http://www.w3.org/2000/svg" id="Capa_1" enable-background="new 0 0 512 512" height="512px" viewBox="0 0 512 512" width="512px"><path d="m359.058 142.671c6.174 2.837 11.155 6.926 16.428 11.254 10.68 8.767 22.784 18.703 46.178 18.703s35.498-9.937 46.178-18.703c9.999-8.208 18.635-15.297 36.659-15.297 4.143 0 7.5-3.358 7.5-7.5s-3.357-7.5-7.5-7.5c-23.393 0-35.497 9.937-46.177 18.703-9.999 8.208-18.635 15.297-36.66 15.297s-26.661-7.089-36.66-15.297c-5.776-4.742-11.749-9.645-19.682-13.29-3.764-1.729-8.217-.08-9.946 3.683-1.731 3.765-.082 8.218 3.682 9.947z" fill="#004239"/><path d="m7.5 138.629c18.023 0 26.658 7.089 36.656 15.297 10.679 8.767 22.782 18.703 46.175 18.703s35.496-9.937 46.175-18.703c9.998-8.208 18.634-15.297 36.657-15.297s26.658 7.089 36.656 15.297c10.679 8.767 22.782 18.703 46.174 18.703 23.393 0 35.496-9.937 46.176-18.703 9.696-7.96 18.071-14.835 34.941-15.275 4.141-.108 7.41-3.552 7.302-7.693-.107-4.141-3.567-7.393-7.692-7.302-22.018.574-33.732 10.191-44.068 18.676-9.999 8.208-18.634 15.297-36.658 15.297-18.023 0-26.658-7.089-36.656-15.297-10.679-8.767-22.782-18.703-46.174-18.703-23.393 0-35.496 9.937-46.175 18.703-9.998 8.208-18.634 15.297-36.657 15.297s-26.659-7.089-36.657-15.297c-10.679-8.767-22.782-18.703-46.174-18.703-4.143 0-7.5 3.358-7.5 7.5s3.356 7.5 7.499 7.5z" fill="#004239"/><path d="m504.5 195.543c-23.393 0-35.497 9.936-46.177 18.703-9.999 8.208-18.635 15.297-36.66 15.297-18.024 0-26.66-7.089-36.659-15.297-10.68-8.767-22.784-18.703-46.178-18.703-23.392 0-35.496 9.937-46.175 18.703-9.999 8.208-18.634 15.297-36.658 15.297-18.023 0-26.658-7.089-36.656-15.297-10.679-8.767-22.782-18.703-46.174-18.703-23.393 0-35.496 9.937-46.175 18.703-9.998 8.208-18.634 15.297-36.657 15.297s-26.659-7.089-36.657-15.297c-10.679-8.767-22.782-18.703-46.174-18.703-4.143 0-7.5 3.358-7.5 7.5s3.357 7.5 7.5 7.5c18.023 0 26.658 7.089 36.656 15.297 10.679 8.767 22.782 18.703 46.175 18.703s35.496-9.937 46.175-18.703c9.998-8.208 18.634-15.297 36.657-15.297s26.658 7.089 36.656 15.297c10.679 8.767 22.782 18.703 46.174 18.703 23.393 0 35.497-9.937 46.176-18.703 9.999-8.208 18.634-15.297 36.657-15.297 18.025 0 26.661 7.089 36.66 15.297 10.68 8.767 22.784 18.703 46.177 18.703 23.394 0 35.498-9.937 46.178-18.703 9.999-8.208 18.635-15.297 36.659-15.297 4.143 0 7.5-3.358 7.5-7.5s-3.357-7.5-7.5-7.5z" fill="#004239"/><path d="m504.5 267.457c-23.393 0-35.497 9.936-46.177 18.703-9.999 8.208-18.635 15.297-36.66 15.297-18.024 0-26.66-7.089-36.659-15.297-10.68-8.767-22.784-18.703-46.178-18.703-23.392 0-35.496 9.937-46.175 18.703-9.999 8.208-18.634 15.297-36.658 15.297-18.023 0-26.658-7.089-36.656-15.297-10.679-8.767-22.782-18.703-46.174-18.703-23.393 0-35.496 9.937-46.175 18.703-9.998 8.208-18.634 15.297-36.657 15.297s-26.659-7.089-36.657-15.297c-10.679-8.767-22.782-18.703-46.174-18.703-4.143 0-7.5 3.358-7.5 7.5s3.357 7.5 7.5 7.5c18.023 0 26.658 7.089 36.656 15.297 10.679 8.767 22.782 18.703 46.175 18.703s35.496-9.937 46.175-18.703c9.998-8.208 18.634-15.297 36.657-15.297s26.658 7.089 36.656 15.297c10.679 8.767 22.782 18.703 46.174 18.703 23.393 0 35.497-9.937 46.176-18.703 9.999-8.208 18.634-15.297 36.657-15.297 18.025 0 26.661 7.089 36.66 15.297 10.68 8.767 22.784 18.703 46.177 18.703 23.394 0 35.498-9.937 46.178-18.703 9.999-8.208 18.635-15.297 36.659-15.297 4.143 0 7.5-3.358 7.5-7.5s-3.357-7.5-7.5-7.5z" fill="#004239"/><path d="m504.5 339.371c-23.393 0-35.497 9.937-46.177 18.703-9.999 8.208-18.635 15.297-36.66 15.297-18.024 0-26.66-7.089-36.659-15.297-10.68-8.767-22.784-18.703-46.178-18.703-23.392 0-35.496 9.937-46.175 18.703-9.999 8.208-18.634 15.297-36.658 15.297-18.023 0-26.658-7.089-36.656-15.297-6.854-5.627-13.943-11.447-24.161-15.123-3.897-1.402-8.194.621-9.597 4.519-1.401 3.897.621 8.194 4.519 9.596 7.78 2.799 13.581 7.561 19.722 12.602 10.679 8.767 22.782 18.703 46.174 18.703 23.393 0 35.497-9.937 46.176-18.703 9.998-8.208 18.634-15.297 36.657-15.297 18.025 0 26.661 7.089 36.66 15.297 10.68 8.767 22.784 18.703 46.177 18.703 23.394 0 35.498-9.937 46.178-18.703 9.999-8.208 18.635-15.297 36.659-15.297 4.143 0 7.5-3.358 7.5-7.5s-3.358-7.5-7.501-7.5z" fill="#004239"/><path d="m167.249 339.593c-19.587 1.509-30.57 10.526-40.262 18.481-9.998 8.208-18.633 15.297-36.656 15.297s-26.659-7.089-36.657-15.297c-10.679-8.767-22.782-18.703-46.174-18.703-4.143 0-7.5 3.358-7.5 7.5s3.357 7.5 7.5 7.5c18.023 0 26.658 7.089 36.656 15.297 10.679 8.767 22.782 18.703 46.175 18.703 23.392 0 35.496-9.937 46.175-18.703 9.133-7.498 17.021-13.974 31.896-15.119 4.13-.318 7.22-3.924 6.901-8.054s-3.909-7.224-8.054-6.902z" fill="#004239"/></svg>
