<?xml version="1.0" encoding="utf-8"?>
<!-- Generator: Adobe Illustrator 23.1.0, SVG Export Plug-In . SVG Version: 6.00 Build 0)  -->
<svg version="1.1" id="Ebene_1" xmlns="http://www.w3.org/2000/svg" xmlns:xlink="http://www.w3.org/1999/xlink" x="0px" y="0px"
	 viewBox="0 0 25 25" style="enable-background:new 0 0 25 25;" xml:space="preserve">
<style type="text/css">
	.st0{fill:#063A38;}
	.st1{fill:#EDD9BC;}
</style>
<g>
	<path class="st0" d="M6.6,8.7c0.1,0.1,0.2,0.2,0.1,0.4c0,0.1-0.1,0.2-0.1,0.3S6.4,9.5,6.3,9.5c0,0-0.1,0-0.1,0C6,9.4,6,9.3,6.1,9.1
		c0-0.1,0.1-0.2,0.2-0.3C6.3,8.6,6.5,8.6,6.6,8.7z"/>
	<path class="st0" d="M7.6,8C7.5,8.1,7.5,8.1,7.4,8.1c-0.1,0-0.1,0-0.2-0.1C7.1,8,7.1,7.8,7.2,7.7c0.9-1.1,2.1-1.9,3.4-2.3
		c0.1,0,0.3,0,0.3,0.2c0,0.2,0,0.3-0.2,0.4C9.5,6.3,8.4,7,7.6,8z"/>
	<path class="st0" d="M18.3,16c0.1,0.1,0.2,0.3,0.1,0.4c-0.8,1.2-2,2.1-3.3,2.6c0,0-0.1,0-0.1,0c-0.1,0-0.2-0.1-0.3-0.2
		c0-0.1,0-0.3,0.2-0.4c1.3-0.5,2.3-1.3,3.1-2.4C18,15.9,18.2,15.9,18.3,16z"/>
	<path class="st0" d="M19.4,14.3c-0.1,0.3-0.2,0.7-0.4,1c0,0.1-0.1,0.2-0.3,0.2c0,0-0.1,0-0.1,0c-0.1-0.1-0.2-0.2-0.1-0.4
		c0.1-0.3,0.3-0.6,0.4-0.9c0-0.1,0.2-0.2,0.3-0.2C19.3,14,19.4,14.1,19.4,14.3z"/>
</g>
<g>
	<path class="st1" d="M6.6,8.7c0.1,0.1,0.2,0.2,0.1,0.4c0,0.1-0.1,0.2-0.1,0.3S6.4,9.5,6.3,9.5c0,0-0.1,0-0.1,0C6,9.4,6,9.3,6.1,9.1
		c0-0.1,0.1-0.2,0.2-0.3C6.3,8.6,6.5,8.6,6.6,8.7z"/>
	<path class="st1" d="M7.6,8C7.5,8.1,7.5,8.1,7.4,8.1c-0.1,0-0.1,0-0.2-0.1C7.1,8,7.1,7.8,7.2,7.7c0.9-1.1,2.1-1.9,3.4-2.3
		c0.1,0,0.3,0,0.3,0.2c0,0.2,0,0.3-0.2,0.4C9.5,6.3,8.4,7,7.6,8z"/>
	<path class="st1" d="M18.3,16c0.1,0.1,0.2,0.3,0.1,0.4c-0.8,1.2-2,2.1-3.3,2.6c0,0-0.1,0-0.1,0c-0.1,0-0.2-0.1-0.3-0.2
		c0-0.1,0-0.3,0.2-0.4c1.3-0.5,2.3-1.3,3.1-2.4C18,15.9,18.2,15.9,18.3,16z"/>
	<path class="st1" d="M19.4,14.3c-0.1,0.3-0.2,0.7-0.4,1c0,0.1-0.1,0.2-0.3,0.2c0,0-0.1,0-0.1,0c-0.1-0.1-0.2-0.2-0.1-0.4
		c0.1-0.3,0.3-0.6,0.4-0.9c0-0.1,0.2-0.2,0.3-0.2C19.3,14,19.4,14.1,19.4,14.3z"/>
	<path class="st0" d="M12.5,1.4c-6,0-10.8,4.8-10.8,10.8c0,6,4.8,10.8,10.8,10.8s10.8-4.8,10.8-10.8C23.3,6.3,18.5,1.4,12.5,1.4z
		 M12.5,20.4c-4.5,0-8.2-3.7-8.2-8.2S8,4,12.5,4s8.2,3.7,8.2,8.2S17,20.4,12.5,20.4z"/>
</g>
<g>
	<path class="st0" d="M10.9,5.6c0,0.2,0,0.3-0.2,0.4C9.5,6.3,8.4,7,7.6,8C7.5,8.1,7.5,8.1,7.4,8.1c-0.1,0-0.1,0-0.2-0.1
		C7.1,8,7.1,7.8,7.2,7.7c0.9-1.1,2.1-1.9,3.4-2.3C10.7,5.3,10.9,5.4,10.9,5.6z"/>
</g>
<g>
	<path class="st0" d="M6.7,9.1c0,0.1-0.1,0.2-0.1,0.3S6.4,9.5,6.3,9.5c0,0-0.1,0-0.1,0C6,9.4,6,9.3,6.1,9.1c0-0.1,0.1-0.2,0.2-0.3
		c0.1-0.1,0.2-0.2,0.4-0.1C6.8,8.8,6.8,8.9,6.7,9.1z"/>
</g>
<g>
	<path class="st0" d="M18.3,16.4c-0.8,1.2-2,2.1-3.3,2.6c0,0-0.1,0-0.1,0c-0.1,0-0.2-0.1-0.3-0.2c0-0.1,0-0.3,0.2-0.4
		c1.3-0.5,2.3-1.3,3.1-2.4c0.1-0.1,0.3-0.2,0.4-0.1C18.4,16.1,18.4,16.2,18.3,16.4z"/>
</g>
<g>
	<path class="st0" d="M19.4,14.3c-0.1,0.3-0.2,0.7-0.4,1c0,0.1-0.1,0.2-0.3,0.2c0,0-0.1,0-0.1,0c-0.1-0.1-0.2-0.2-0.1-0.4
		c0.1-0.3,0.3-0.6,0.4-0.9c0-0.1,0.2-0.2,0.3-0.2C19.3,14,19.4,14.1,19.4,14.3z"/>
</g>
<g>
	<path class="st0" d="M14.3,8.4l0.5,0.5l-3.3,1.4l0.6,0.6c-0.5,0.1-0.8,0.4-1,0.8l-0.4-0.4l-1.4,3.3L8.7,14l-0.9,2.8l2.8-0.9
		l-0.5-0.5l3.3-1.4L13,13.6c0.4-0.2,0.7-0.6,0.8-1l0.6,0.6l1.4-3.3l0.5,0.5l0.9-2.8L14.3,8.4z M12.6,13.2c-0.1,0-0.2,0-0.3,0
		c-0.5,0-0.9-0.4-0.9-0.9c0-0.1,0-0.2,0-0.3c0.1-0.4,0.5-0.7,0.9-0.7c0.1,0,0.2,0,0.3,0l0,0c0.3,0.1,0.5,0.3,0.5,0.5
		c0,0.1,0.1,0.2,0.1,0.3C13.2,12.7,13,13.1,12.6,13.2z"/>
</g>
</svg>
