<?xml version="1.0" encoding="utf-8"?>
<!-- Generator: Adobe Illustrator 23.1.0, SVG Export Plug-In . SVG Version: 6.00 Build 0)  -->
<svg version="1.1" id="Ebene_1" xmlns="http://www.w3.org/2000/svg" xmlns:xlink="http://www.w3.org/1999/xlink" x="0px" y="0px"
	 viewBox="0 0 25 25" style="enable-background:new 0 0 25 25;" xml:space="preserve">
<style type="text/css">
	.st0{fill:#063A38;}
</style>
<g>
	<path class="st0" d="M20.9,12.2H3.8v1.9h6.5c-0.1,0.2-0.2,0.4-0.3,0.6H3.8v1.7H10V17H3.8v1.7H10v0.6H3.8v1.9h17.1v-1.9h-6.4v-0.6
		h6.4V17h-6.4v-0.6h6.4v-1.7h-6.5c0-0.2-0.1-0.4-0.3-0.6h6.8V12.2z M13.7,14.7c0.1,0.2,0.1,0.4,0.1,0.6v5.2h-3.2v-5.2
		c0-0.2,0-0.4,0.1-0.6c0.1-0.2,0.2-0.4,0.4-0.6c0.3-0.2,0.6-0.4,1-0.4s0.8,0.1,1,0.4C13.5,14.3,13.6,14.5,13.7,14.7z"/>
</g>
<g>
	<path class="st0" d="M15.6,6.5c0,0.1,0.1,0.1,0.1,0.2l1,0.7L15.6,6.5z"/>
	<path class="st0" d="M22.6,11l-4.5-3.3V4.5c0-0.2-0.2-0.3-0.3-0.3h-1.9c-0.2,0-0.3,0.2-0.3,0.3v1.3l-2.9-2.2
		c-0.1-0.1-0.2-0.1-0.3,0L2.4,11c-0.1,0.1-0.1,0.2-0.1,0.3c0,0.1,0.1,0.2,0.3,0.2h19.9c0.1,0,0.2-0.1,0.3-0.2
		C22.8,11.2,22.7,11.1,22.6,11z M5.5,11l5.3-3.6C10.9,7.2,11,7,10.9,6.9c-0.1-0.1-0.3-0.2-0.4-0.1l-6,4.1H3.4l9.1-6.7l3.1,2.3
		l1.1,0.8l4.9,3.6H5.5z"/>
</g>
</svg>
