<?xml version="1.0" encoding="utf-8"?>
<!-- Generator: Adobe Illustrator 23.1.0, SVG Export Plug-In . SVG Version: 6.00 Build 0)  -->
<svg version="1.1" id="Ebene_1" xmlns="http://www.w3.org/2000/svg" xmlns:xlink="http://www.w3.org/1999/xlink" x="0px" y="0px"
	 viewBox="0 0 25 25" style="enable-background:new 0 0 25 25;" xml:space="preserve">
<style type="text/css">
	.st0{fill:#063A38;}
</style>
<g id="Pfad_9_9_">
	<g>
		<path class="st0" d="M13.7,18.6c-0.3,0.3-0.8,0.6-1.2,0.6c0,0,0,0,0,0c0,0,0,0,0,0c-0.5-0.1-1-0.3-1.4-0.6c-0.1-0.1-0.1-0.3,0-0.4
			c0.1-0.1,0.3-0.1,0.4,0c0.3,0.3,0.7,0.4,1,0.5c0.3-0.1,0.6-0.2,0.8-0.4c0.1-0.1,0.3-0.1,0.4,0C13.8,18.3,13.8,18.5,13.7,18.6z"/>
	</g>
</g>
<g id="Pfad_11_9_">
	<g>
		<path class="st0" d="M7.3,14.9v0.2c0,0,0-0.1,0-0.1C7.3,15,7.3,15,7.3,14.9C7.3,14.9,7.3,14.9,7.3,14.9z"/>
		<path class="st0" d="M17.7,19.2c0.1-0.1,0.1-0.3,0.1-0.4c0.1-0.4,0.1-0.8,0-1.1c2.2-0.6,2.6-1.9,2.6-1.9c0-0.1,0-0.3-0.1-0.3
			c-0.3-0.2-0.6-0.4-0.8-0.6c-0.1-0.1-0.2-0.1-0.2-0.2c0.3-0.3,0.5-0.7,0.6-1.1v0c0-0.1,0-0.2,0-0.3c0-0.1,0-0.1,0-0.3
			c0-0.4-0.2-0.8-0.5-1.1c-0.1-0.2-0.3-0.3-0.5-0.4V10c0.2-0.1,0.4-0.2,0.5-0.4l0.1-0.1c0.1-0.1,0.2-0.2,0.3-0.3l0.1-0.1
			C20,9.1,20,9,19.9,8.9c0-0.1-0.1-0.1-0.2-0.1h0C19.9,8.5,20,8.3,20.1,8c0.1-0.4,0-0.8-0.2-1.2c-0.2-0.3-0.5-0.5-0.8-0.6
			C19,6.1,19,6,19,6c-0.3-1.4-1.1-2.7-2.2-3.6c0,0-0.1-0.1-0.1-0.1c-0.1-0.1-0.1-0.1-0.2-0.2c0,0-0.1-0.1-0.1-0.1
			c-0.2-0.2-0.5-0.3-0.8-0.5l-0.1-0.1c0,0-0.1,0-0.1-0.1c-0.1,0-0.2-0.1-0.3-0.1c-0.8-0.3-1.7-0.5-2.5-0.5c0,0,0,0,0,0c0,0,0,0,0,0
			h-0.2c0,0-0.1,0-0.1,0c-1.4,0.1-2.6,0.5-3.8,1.4C8.3,2.2,8.2,2.4,8,2.5C7,3.5,6.3,4.8,6,6.2l0,0C5.8,6.3,5.7,6.4,5.5,6.5
			C5.4,6.6,5.3,6.8,5.2,7L5.1,7.4c0,0.1,0,0.2,0,0.2c0,0.5,0.2,1,0.6,1.3c0,0,0,0.1,0,0.1v1.3c0,0,0,0.1,0,0.1v1.2
			c-0.2,0.2-0.4,0.4-0.5,0.6c-0.3,0.5-0.3,1-0.2,1.5l0,0.1c0.1,0.3,0.2,0.5,0.4,0.7c-0.1,0-0.1,0.1-0.2,0.2C5,15,4.7,15.2,4.4,15.4
			c0,0-0.1,0.1-0.1,0.1c0,0.1,0,0.2,0,0.3c0.2,0.5,0.5,0.8,0.9,1.1c0.4,0.3,0.8,0.5,1.2,0.6c0,0,0,0,0.1,0c0.1,0,0.2,0.1,0.4,0.1
			c0,0.3,0,0.6,0,0.9c0,0.3,0.1,0.5,0.2,0.8c-1.6,0.5-5.4,1.8-5.4,4.8c0,0.2,0.1,0.3,0.3,0.3h9.9c0.1,0.1,0.2,0.1,0.3,0.2
			c0.1,0,0.1,0.1,0.2,0.1h0.2c0.1,0,0.1,0,0.2-0.1c0.1-0.1,0.2-0.1,0.3-0.2h10.3c0.1,0,0.3-0.1,0.3-0.3
			C23.4,20.9,19.1,19.6,17.7,19.2z M18.8,14.6L18.8,14.6L18.8,14.6L18.8,14.6z M18.9,12.2c0.2,0.2,0.3,0.5,0.4,0.8c0,0,0,0.1,0,0.2
			c0,0.1,0,0.1,0,0.2c0,0,0,0,0,0c-0.1,0.4-0.3,0.7-0.6,0.9l-0.5,0.2v-2.7c0.1,0,0.3,0.1,0.4,0.1C18.7,12,18.8,12.1,18.9,12.2z
			 M18.7,6.7C18.7,6.7,18.7,6.7,18.7,6.7c0.3,0.1,0.5,0.2,0.7,0.4c0.1,0.2,0.2,0.5,0.1,0.7c0,0.2-0.1,0.4-0.3,0.5
			c0,0.1-0.1,0.1-0.2,0.1c-0.2,0.1-0.3,0.2-0.5,0.2h-1.8c0.2-0.2,0.4-0.6,0.4-1c0-0.4-0.2-0.7-0.4-1h1.9C18.6,6.7,18.6,6.7,18.7,6.7
			z M14.9,1.8c0.1,0,0.2,0.1,0.3,0.1L15.4,2c0.2,0.1,0.5,0.3,0.7,0.4l0.1,0c0.1,0.1,0.2,0.1,0.2,0.2c0,0,0.1,0.1,0.1,0.1
			c1,0.8,1.7,2,1.9,3.3h-2.2C16.2,5.2,16,3.1,14.9,1.8C14.9,1.8,14.9,1.8,14.9,1.8z M12.9,1.3c0.6,0.1,1.1,0.3,1.5,0.7
			c1.1,1.1,1.2,3.2,1.3,4h-2.7V1.3z M12.9,6.7h2.7c0.2,0.1,0.9,0.4,0.9,1c0,0.6-0.6,0.9-0.8,1h-2.8V6.7z M12.1,1.3
			C12.1,1.3,12.2,1.3,12.1,1.3c0.1,0,0.1,0,0.2,0V6H9.5C9.5,5,9.8,1.7,12.1,1.3z M9.2,6.7C9.2,6.7,9.2,6.7,9.2,6.7
			C9.2,6.6,9.2,6.7,9.2,6.7h3.1v2H9.2C9,8.5,8.4,8.2,8.4,7.6C8.4,7.1,9,6.8,9.2,6.7L9.2,6.7z M8.4,3c0.1-0.1,0.3-0.3,0.5-0.4
			C9.3,2.3,9.7,2,10.1,1.8C9,3.2,8.8,5.3,8.8,6H6.7C7,4.9,7.5,3.8,8.4,3z M6.7,14.5c-0.2,0-0.4-0.1-0.6-0.3
			c-0.2-0.2-0.4-0.4-0.5-0.6l0-0.1c-0.1-0.4-0.1-0.7,0.1-1.1c0.2-0.3,0.5-0.6,0.9-0.7c0,0,0.1,0,0.1,0V14.5z M6.7,8.6
			c-0.2,0-0.4-0.1-0.5-0.2C5.8,8.3,5.7,8,5.7,7.6c0,0,0-0.1,0-0.2l0.1-0.2C5.8,7.1,5.9,7,6,7c0.1-0.1,0.3-0.2,0.4-0.3c0,0,0,0,0,0
			c0.1,0,0.2,0,0.2,0h1.5c-0.2,0.2-0.4,0.6-0.4,1c0,0.4,0.2,0.7,0.4,1H6.7z M17.3,18.7c0,0.1-0.1,0.2-0.1,0.3
			c-0.1,0.1-0.2,0.3-0.3,0.4c-0.4,0.6-0.8,1.3-1.2,1.9l-0.4-0.4c-0.1-0.1-0.2-0.1-0.3-0.1s-0.2,0.1-0.2,0.2c-0.2,0.5-0.4,1-0.8,1.5
			c-0.4,0.5-0.9,1-1.4,1.5c-0.1,0.1-0.2,0.1-0.3,0.2c-0.1-0.1-0.2-0.1-0.3-0.2c-0.5-0.4-1-0.9-1.4-1.4c-0.4-0.5-0.6-1-0.8-1.5
			c0-0.1-0.1-0.2-0.2-0.2c-0.1,0-0.2,0-0.3,0.1L9,21.3c-0.4-0.5-0.8-1.1-1.1-1.6c0-0.1-0.1-0.2-0.1-0.2c0-0.1-0.1-0.2-0.2-0.3
			c0,0-0.1-0.1-0.1-0.1c-0.1-0.2-0.1-0.3-0.1-0.5c0-0.3,0-0.7,0.1-1c0-0.2,0.1-0.4,0.2-0.7c1,0.3,2.1,0.4,3.2,0.2
			c0,0.1,0.1,0.2,0.2,0.3c0.2,0.3,0.7,0.5,1.3,0.5c0.1,0,0.1,0,0.2,0c0.6,0,1.2-0.3,1.5-0.8c0.4,0.1,0.8,0.1,1.3,0.1
			c0.6,0,1.2-0.1,1.7-0.2c0,0.1,0.1,0.2,0.1,0.4c0,0.1,0,0.2,0.1,0.3C17.3,17.9,17.3,18.3,17.3,18.7z M11.5,16.8
			c0.2-0.1,0.5-0.2,0.7-0.3c0.1-0.1,0.2-0.1,0.3-0.2c0.1,0.1,0.2,0.1,0.3,0.2c0.2,0.1,0.4,0.2,0.6,0.3c-0.3,0.2-0.6,0.3-1,0.3
			C11.9,17.1,11.6,16.9,11.5,16.8z M17.1,16.2c-1,0.3-2.1,0.4-3.2,0.1h0c-0.5-0.1-0.9-0.3-1.3-0.6c0,0-0.1,0-0.2,0h-0.1
			c-0.1,0-0.1,0-0.2,0c-0.4,0.3-0.8,0.5-1.3,0.6h0c-0.4,0.1-0.8,0.1-1.3,0.1c-0.1,0-0.1,0-0.2,0c-0.6,0-1.3-0.1-1.9-0.3c0,0,0,0,0,0
			h0c0,0-0.1,0-0.1,0c0.9-0.3,1.7-0.8,2.5-1.4c0.3-0.3,0.7-0.4,1-0.4c0.5,0,0.9,0.2,1.3,0.5c0,0,0.1,0,0.2,0h0.1c0.1,0,0.1,0,0.2,0
			c0.4-0.3,0.8-0.4,1.3-0.5c0.4,0,0.8,0.2,1.1,0.5c0.8,0.6,1.6,1,2.5,1.4C17.4,16.1,17.3,16.1,17.1,16.2z M17.5,15.4
			c-0.8-0.3-1.5-0.7-2.1-1.2c-0.4-0.4-0.9-0.6-1.5-0.6c-0.5,0.1-1,0.3-1.5,0.5c-0.5-0.3-1-0.4-1.5-0.5c-0.5,0-1.1,0.2-1.5,0.6
			c-0.7,0.5-1.4,0.9-2.1,1.2v-0.3c0,0,0-0.1,0-0.1c0,0,0,0,0,0c0,0,0-0.1,0-0.1V10c0.6-0.2,1.2-0.3,1.8-0.3c0.3,0,0.5,0,0.8,0.1
			c1.1,0.3,2.1,0.6,3,1c0,0,0.1,0,0.1,0c0,0,0.1,0,0.1,0c0.1,0,0.1-0.1,0.1-0.2l0.1-0.3c0.6,0.2,2.4,0.7,4.2,0.2V15.4z"/>
	</g>
</g>
<g id="Pfad_13_9_">
	<g>
		<path class="st0" d="M10.9,12.5c0,0.4-0.3,0.7-0.7,0.7c-0.4,0-0.7-0.3-0.7-0.7s0.3-0.7,0.7-0.7C10.6,11.8,10.9,12.1,10.9,12.5z"/>
	</g>
</g>
<g id="Pfad_14_9_">
	<g>
		<path class="st0" d="M11.3,11.2c-0.1,0.1-0.3,0.2-0.4,0.1c-0.2-0.1-0.5-0.2-0.7-0.2c-0.3,0-0.6,0.1-0.8,0.3
			c-0.1,0.1-0.1,0.1-0.2,0.1c-0.1,0-0.2,0-0.2-0.1c-0.1-0.1-0.1-0.3,0-0.4c0.3-0.3,0.8-0.4,1.2-0.4c0.4,0,0.8,0.1,1.1,0.3
			C11.3,10.9,11.4,11.1,11.3,11.2z"/>
	</g>
</g>
<g id="Pfad_15_9_">
	<g>
		<path class="st0" d="M15.4,12.5c0,0.4-0.3,0.7-0.7,0.7c-0.4,0-0.7-0.3-0.7-0.7c0-0.4,0.3-0.7,0.7-0.7
			C15.1,11.8,15.4,12.1,15.4,12.5z"/>
	</g>
</g>
<g id="Pfad_20_9_">
	<g>
		<path class="st0" d="M13.7,18.6c-0.3,0.3-0.8,0.6-1.2,0.6c0,0,0,0,0,0c0,0,0,0,0,0c-0.5-0.1-1-0.3-1.4-0.6c-0.1-0.1-0.1-0.3,0-0.4
			c0.1-0.1,0.3-0.1,0.4,0c0.3,0.3,0.7,0.4,1,0.5c0.3-0.1,0.6-0.2,0.8-0.4c0.1-0.1,0.3-0.1,0.4,0C13.8,18.3,13.8,18.5,13.7,18.6z"/>
	</g>
</g>
<g id="Pfad_33_9_">
	<g>
		<path class="st0" d="M9.2,6.8C9.2,6.8,9.2,6.8,9.2,6.8L9.2,6.8C9.2,6.8,9.2,6.8,9.2,6.8z"/>
	</g>
</g>
<g id="Pfad_37_9_">
	<g>
		<path class="st0" d="M9.2,6.8C9.2,6.8,9.2,6.8,9.2,6.8L9.2,6.8C9.2,6.8,9.2,6.8,9.2,6.8z"/>
	</g>
</g>
<g>
	<g>
		<path class="st0" d="M5.9,8.9"/>
	</g>
</g>
<g>
	<g>
		<polygon class="st0" points="18.8,14.7 18.8,14.8 18.8,14.7 		"/>
	</g>
	<g>
		<path class="st0" d="M18.8,14.7L18.8,14.7L18.8,14.7L18.8,14.7z"/>
	</g>
</g>
</svg>
