<?xml version="1.0" encoding="utf-8"?>
<!-- Generator: Adobe Illustrator 23.1.0, SVG Export Plug-In . SVG Version: 6.00 Build 0)  -->
<svg version="1.1" id="Ebene_1" xmlns="http://www.w3.org/2000/svg" xmlns:xlink="http://www.w3.org/1999/xlink" x="0px" y="0px"
	 viewBox="0 0 50 40" style="enable-background:new 0 0 50 40;" xml:space="preserve">
<style type="text/css">
	.st0{fill:#EDD9BC;}
	.st1{fill:#5EB990;}
</style>
<g>
	<path class="st0" d="M0,33.4h0.4V31H0v-1.7h0.5c0-0.8,0.2-1.4,0.6-1.8c0.4-0.4,1-0.6,1.8-0.6c0.4,0,0.7,0,1,0.1
		c0.3,0.1,0.5,0.1,0.6,0.2v1.6c-0.4,0-0.7-0.1-1-0.1c-0.3,0-0.4,0-0.6,0.1c-0.1,0.1-0.2,0.2-0.2,0.5h0.8V31H2.8v2.3h0.8V35H0V33.4z"
		/>
	<path class="st0" d="M5.7,34.4c-0.5-0.5-0.8-1.2-0.8-2.2c0-1,0.3-1.7,0.8-2.2C6.3,29.5,7,29.2,8,29.2c1,0,1.7,0.3,2.3,0.8
		c0.5,0.5,0.8,1.3,0.8,2.2c0,1-0.3,1.7-0.8,2.2C9.7,34.9,9,35.2,8,35.2C7,35.2,6.3,34.9,5.7,34.4z M8.4,33.2
		c0.1-0.1,0.1-0.3,0.1-0.5v-1c0-0.2,0-0.4-0.1-0.5C8.3,31.1,8.2,31,8,31c-0.2,0-0.3,0.1-0.4,0.2c-0.1,0.1-0.1,0.3-0.1,0.5v1
		c0,0.2,0,0.4,0.1,0.5s0.2,0.2,0.4,0.2C8.2,33.4,8.3,33.3,8.4,33.2z"/>
	<path class="st0" d="M17.2,29.3c0.1,0,0.2,0.1,0.3,0.1v2c-0.3-0.1-0.6-0.2-0.9-0.2c-0.4,0-0.8,0.1-1,0.3c-0.2,0.2-0.3,0.6-0.3,1
		v0.9h0.9V35h-3.7v-1.7h0.4V31h-0.4v-1.7h2.8v0.7c0.2-0.3,0.4-0.5,0.7-0.7c0.2-0.2,0.5-0.2,0.9-0.2C16.9,29.2,17.1,29.2,17.2,29.3z"
		/>
	<path class="st0" d="M19.6,34.4c-0.5-0.5-0.8-1.2-0.8-2.2c0-1,0.3-1.7,0.8-2.2c0.5-0.5,1.3-0.8,2.3-0.8c1,0,1.7,0.3,2.1,0.8
		s0.6,1.1,0.6,1.9v0.7h-3.3v0.1c0,0.3,0.1,0.4,0.2,0.6c0.1,0.1,0.4,0.2,0.7,0.2c0.4,0,0.8,0,1.2-0.1c0.4-0.1,0.7-0.1,1-0.2v1.6
		c-0.2,0.1-0.6,0.2-1,0.4s-1,0.2-1.5,0.2C20.9,35.2,20.2,34.9,19.6,34.4z M22.5,31.4v-0.1c0-0.2,0-0.4-0.1-0.5s-0.2-0.2-0.4-0.2
		c-0.2,0-0.3,0.1-0.4,0.2c-0.1,0.1-0.1,0.3-0.1,0.5v0.1H22.5z"/>
	<path class="st0" d="M25.9,34.8v-1.5h1.7v0.1c0,0.3,0.2,0.5,0.6,0.5c0.4,0,0.6-0.1,0.6-0.4c0-0.1-0.1-0.2-0.2-0.3
		C28.5,33.1,28.3,33,28,33l-0.5-0.1c-1.1-0.2-1.6-0.8-1.6-1.8c0-0.6,0.2-1.1,0.7-1.4c0.4-0.3,1.1-0.5,1.8-0.5c0.9,0,1.6,0.1,2.2,0.4
		v1.4H29V31c0-0.1,0-0.2-0.1-0.3s-0.2-0.1-0.4-0.1c-0.3,0-0.5,0.1-0.5,0.3c0,0.1,0,0.2,0.1,0.3c0.1,0.1,0.3,0.1,0.5,0.2l0.6,0.1
		c0.6,0.1,1,0.3,1.3,0.6s0.4,0.7,0.4,1.2c0,0.6-0.2,1.1-0.6,1.4s-1,0.5-1.8,0.5C27.5,35.2,26.7,35,25.9,34.8z"/>
	<path class="st0" d="M33.1,34.7c-0.4-0.4-0.5-0.9-0.5-1.8V31h-0.4v-1.7c0.3,0,0.5-0.1,0.6-0.2s0.2-0.3,0.2-0.5v-0.5h2.2v1.2h1.4V31
		h-1.4v1.7c0,0.2,0,0.4,0.1,0.5c0.1,0.1,0.2,0.2,0.4,0.2c0.3,0,0.5,0,0.8-0.1v1.6c-0.2,0.1-0.4,0.1-0.8,0.2s-0.7,0.1-1,0.1
		C34,35.2,33.5,35,33.1,34.7z"/>
	<path class="st0" d="M38.6,34.4c-0.5-0.5-0.8-1.2-0.8-2.2c0-1,0.3-1.7,0.8-2.2c0.5-0.5,1.3-0.8,2.3-0.8c1,0,1.7,0.3,2.1,0.8
		s0.6,1.1,0.6,1.9v0.7h-3.3v0.1c0,0.3,0.1,0.4,0.2,0.6c0.1,0.1,0.4,0.2,0.7,0.2c0.4,0,0.8,0,1.2-0.1c0.4-0.1,0.7-0.1,1-0.2v1.6
		c-0.2,0.1-0.6,0.2-1,0.4s-1,0.2-1.5,0.2C39.9,35.2,39.2,34.9,38.6,34.4z M41.5,31.4v-0.1c0-0.2,0-0.4-0.1-0.5s-0.2-0.2-0.4-0.2
		c-0.2,0-0.3,0.1-0.4,0.2c-0.1,0.1-0.1,0.3-0.1,0.5v0.1H41.5z"/>
	<path class="st0" d="M49.7,29.3c0.1,0,0.2,0.1,0.3,0.1v2c-0.3-0.1-0.6-0.2-0.9-0.2c-0.4,0-0.8,0.1-1,0.3c-0.2,0.2-0.3,0.6-0.3,1
		v0.9h0.9V35H45v-1.7h0.4V31H45v-1.7h2.8v0.7c0.2-0.3,0.4-0.5,0.7-0.7c0.2-0.2,0.5-0.2,0.9-0.2C49.4,29.2,49.6,29.2,49.7,29.3z"/>
</g>
<path class="st1" d="M35.4,13.8c0,3.8-2.5,7.1-4.8,10.1c0,0-0.1,0.1-0.1,0.1l-1.3-3.3h1.2l-3.2-6.2h1.3l-3.6-5.6l-3.6,5.6h1.3
	l-3.2,6.2h1.2l-1.1,2.9c0,0-0.1-0.1-0.1-0.1c-0.2-0.2-0.4-0.5-0.6-0.7c-1.9-2.6-4.1-5.6-4.1-8.9c0-5.7,4.6-10.3,10.3-10.3
	C30.8,3.5,35.4,8.1,35.4,13.8z"/>
</svg>
