<?xml version="1.0" encoding="utf-8"?>
<!-- Generator: Adobe Illustrator 23.1.0, SVG Export Plug-In . SVG Version: 6.00 Build 0)  -->
<svg version="1.1" id="Ebene_1" xmlns="http://www.w3.org/2000/svg" xmlns:xlink="http://www.w3.org/1999/xlink" x="0px" y="0px"
	 viewBox="0 0 25 25" style="enable-background:new 0 0 25 25;" xml:space="preserve">
<style type="text/css">
	.st0{fill:#063A38;}
	.st1{fill:none;stroke:#063A38;stroke-width:0.661;stroke-linecap:round;stroke-linejoin:round;stroke-miterlimit:10;}
</style>
<g>
	<g>
		<path class="st0" d="M20.8,9.5c0.1-3.7-4.2-5.8-7.9-6h0V2.9c0-0.7,0.5-1.2,1.2-1.2c0.2,0,0.4-0.2,0.4-0.4C14.4,1.1,14.3,1,14,1
			c-1.1,0-2,0.9-2,2v0.6c0,0-0.1,0-0.1,0C8,3.8,4.1,6.1,4.2,9.5c0,0.4,0.3,0.8,0.6,1c-0.2,0.6-0.9,3.6,0.5,6.2
			c0.9,1.7,2.4,2.8,4.6,3.4c0,0,1.2,0.5,1.9,1.4c-2.3,0.1-4,0.5-4,1c0,0.5,2.1,1,4.6,1c2.6,0,4.6-0.4,4.6-1c0-0.5-1.8-0.9-4-1
			c0.3-0.4,0.7-0.6,1.1-0.9c0.5-0.3,1-0.5,1-0.5c2.2-0.6,3.8-1.8,4.6-3.5c1.4-2.6,0.7-5.6,0.5-6.2C20.5,10.3,20.8,10,20.8,9.5z
			 M18.1,6.1l-1.3,1.3l-1.4-1.4l0.9-0.9C16.9,5.3,17.5,5.7,18.1,6.1z M8.7,7.9l1.4-1.4l1.8,1.8l-1.4,1.4L8.7,7.9z M9.5,9.9H6.7
			l1.4-1.4L9.5,9.9z M12.5,8.9l1,1h-2L12.5,8.9z M13,8.3l1.8-1.8l1.4,1.4l-1.8,1.8L13,8.3z M16.8,8.5l1.4,1.4h-2.8L16.8,8.5z
			 M15.4,4.8l-0.6,0.6l-0.9-0.9C14.4,4.5,14.9,4.6,15.4,4.8z M12.2,4.3c0.2,0,0.3,0,0.5,0l1.6,1.6l-1.8,1.8l-1.8-1.8L12.2,4.3z
			 M11,4.5l-0.9,0.9L9.5,4.8C10,4.6,10.5,4.5,11,4.5z M8.7,5.1l0.9,0.9L8.1,7.3L6.8,6.1C7.4,5.7,8,5.3,8.7,5.1z M4.9,9.5
			c0-1.3,0.7-2.3,1.3-2.9l1.3,1.3l-2,2H5.3C5.1,9.9,4.9,9.7,4.9,9.5z M19.1,16.4c-0.8,1.5-2.2,2.5-4.3,3.1c-0.1,0-1.6,0.6-2.5,1.7
			c-0.8-1-2.2-1.6-2.3-1.7c-2-0.6-3.4-1.6-4.2-3.1c-1.3-2.4-0.5-5.3-0.4-5.7h1.1c-0.3,0.8-0.9,2.8,0.1,4.7c0.1,0.1,0.2,0.2,0.3,0.2
			c0.1,0,0.1,0,0.2,0c0.2-0.1,0.2-0.3,0.1-0.5c-1.1-1.9-0.1-4.2,0-4.3h12.2C19.6,11.1,20.4,14,19.1,16.4z M19.6,9.9h-0.2l-2-2
			l1.3-1.3C19.3,7.2,20,8.2,20,9.5C20,9.7,19.8,9.9,19.6,9.9z"/>
	</g>
</g>
<g>
	<g>
		<g>
			<path class="st0" d="M4.2,6.1c0,0-0.1,0-0.1,0L1.4,5C1.2,5,1.1,4.8,1.2,4.6c0.1-0.2,0.3-0.3,0.4-0.2l2.7,1.1
				c0.2,0.1,0.3,0.3,0.2,0.4C4.5,6,4.4,6.1,4.2,6.1z"/>
		</g>
	</g>
	<g>
		<g>
			<path class="st0" d="M2.8,8.9C2.8,8.9,2.7,8.9,2.8,8.9L1.2,8.6C1,8.6,0.9,8.4,0.9,8.2c0-0.2,0.2-0.3,0.4-0.3l1.6,0.3
				c0.2,0,0.3,0.2,0.3,0.4C3.1,8.8,2.9,8.9,2.8,8.9z"/>
		</g>
	</g>
	<g>
		<g>
			<path class="st0" d="M1.5,11.7c-0.2,0-0.3-0.1-0.3-0.3c0-0.2,0.1-0.3,0.3-0.4L2.1,11c0.2,0,0.3,0.1,0.4,0.3
				c0,0.2-0.1,0.3-0.3,0.4L1.5,11.7C1.6,11.7,1.5,11.7,1.5,11.7z"/>
		</g>
	</g>
</g>
<g>
	<g>
		<g>
			<path class="st0" d="M20.8,6.1c-0.1,0-0.3-0.1-0.3-0.2c-0.1-0.2,0-0.4,0.2-0.4l2.7-1.1c0.2-0.1,0.4,0,0.4,0.2
				c0.1,0.2,0,0.4-0.2,0.4l-2.7,1.1C20.8,6.1,20.8,6.1,20.8,6.1z"/>
		</g>
	</g>
	<g>
		<g>
			<path class="st0" d="M22.2,8.9c-0.2,0-0.3-0.1-0.3-0.3c0-0.2,0.1-0.4,0.3-0.4l1.6-0.3c0.2,0,0.4,0.1,0.4,0.3
				c0,0.2-0.1,0.4-0.3,0.4L22.2,8.9C22.3,8.9,22.2,8.9,22.2,8.9z"/>
		</g>
	</g>
	<g>
		<g>
			<path class="st0" d="M23.5,11.7C23.5,11.7,23.4,11.7,23.5,11.7l-0.6-0.1c-0.2,0-0.3-0.2-0.3-0.4c0-0.2,0.2-0.3,0.4-0.3l0.6,0.1
				c0.2,0,0.3,0.2,0.3,0.4C23.8,11.6,23.6,11.7,23.5,11.7z"/>
		</g>
	</g>
</g>
<g>
	<g>
		<path class="st1" d="M17.4,16.6"/>
	</g>
</g>
<g>
	<g>
		<path class="st0" d="M17,17.6c-0.1,0-0.2,0-0.2-0.1c-0.1-0.1-0.1-0.3,0-0.5c0,0,1.4-1.4,1.4-2.6c0-0.2,0.2-0.3,0.3-0.3
			c0.2,0,0.3,0.2,0.3,0.3c-0.1,1.4-1.6,2.9-1.6,3C17.2,17.6,17.1,17.6,17,17.6z"/>
	</g>
</g>
</svg>
