<?xml version="1.0" encoding="iso-8859-1"?>
<!-- Generator: Adobe Illustrator 19.0.0, SVG Export Plug-In . SVG Version: 6.00 Build 0)  -->
<svg xmlns="http://www.w3.org/2000/svg" xmlns:xlink="http://www.w3.org/1999/xlink" version="1.1" id="Capa_1" x="0px" y="0px" viewBox="0 0 480.002 480.002" style="enable-background:new 0 0 480.002 480.002;" xml:space="preserve" width="512px" height="512px">
<g>
	<g>
		<path d="M383.873,40.002c-17.673,0-32,14.327-32,32s14.327,32,32,32c17.673,0,32-14.327,32-32S401.546,40.002,383.873,40.002z     M383.873,88.002c-8.837,0-16-7.163-16-16s7.163-16,16-16s16,7.163,16,16S392.71,88.002,383.873,88.002z" fill="#FFFCE3"/>
	</g>
</g>
<g>
	<g>
		<path d="M476.593,1.45c-2.138-1.499-4.874-1.861-7.328-0.968l-50.352,18.312C390.173-0.653,351.11,6.88,331.663,35.62    c-0.923,1.365-1.793,2.765-2.606,4.198c-2.463,4.366-4.443,8.988-5.904,13.784l-27.264,9.928l-141.36-47.12    c-1.641-0.483-3.395-0.413-4.992,0.2l-0.064-0.2l-144,48C2.205,65.499,0,68.557,0.001,72.002v400c0,4.418,3.582,8,8,8    c0.859-0.001,1.712-0.138,2.528-0.408l141.472-47.16l141.472,47.16c0.816,0.27,1.669,0.407,2.528,0.408    c0.93-0.014,1.85-0.19,2.72-0.52l176-64c3.154-1.14,5.262-4.126,5.28-7.48v-400C480.001,5.393,478.729,2.948,476.593,1.45z     M342.945,47.754c12.918-22.606,41.717-30.46,64.323-17.541c7.308,4.176,13.365,10.233,17.541,17.541    c8.766,15.3,9.283,33.975,1.376,49.736l-42.312,84.624L341.601,97.49C333.689,81.733,334.193,63.061,342.945,47.754z     M464.001,402.402l-160,58.176v-12.576c0-4.418-3.582-8-8-8s-8,3.582-8,8v12.904l-128-42.672V128.002c0-4.418-3.582-8-8-8    s-8,3.582-8,8v290.232l-128,42.672V77.77l128-42.664v28.896c0,4.418,3.582,8,8,8s8-3.582,8-8V35.098l128,42.672v290.232    c0,4.418,3.582,8,8,8s8-3.582,8-8v-290.4l16-5.832c-0.365,11.385,2.11,22.682,7.2,32.872l49.52,98.936    c1.975,3.952,6.78,5.555,10.733,3.579c1.549-0.774,2.805-2.03,3.579-3.579l49.464-98.928c10.294-20.537,9.619-44.866-1.8-64.8    c-1.837-3.144-3.946-6.121-6.304-8.896l31.608-11.528V402.402z" fill="#FFFCE3"/>
	</g>
</g>
<g>
	<g>
		<path d="M395.313,256.002l10.344-10.344c3.123-3.124,3.123-8.188,0-11.312c-3.124-3.123-8.188-3.123-11.312,0l-10.344,10.344    l-10.344-10.344c-3.178-3.07-8.242-2.982-11.312,0.196c-2.995,3.1-2.995,8.016,0,11.116l10.344,10.344l-10.344,10.344    c-3.178,3.07-3.266,8.134-0.196,11.312c3.07,3.178,8.134,3.266,11.312,0.196c0.066-0.064,0.132-0.13,0.196-0.196l10.344-10.344    l10.344,10.344c3.178,3.07,8.242,2.982,11.312-0.196c2.995-3.1,2.995-8.016,0-11.116L395.313,256.002z" fill="#FFFCE3"/>
	</g>
</g>
<g>
	<g>
		<path d="M120.001,320.002c-4.418,0-8,3.582-8,8v16c0,4.418,3.582,8,8,8s8-3.582,8-8v-16    C128.001,323.584,124.419,320.002,120.001,320.002z" fill="#FFFCE3"/>
	</g>
</g>
<g>
	<g>
		<path d="M120.001,272.002c-4.418,0-8,3.582-8,8v16c0,4.418,3.582,8,8,8s8-3.582,8-8v-16    C128.001,275.584,124.419,272.002,120.001,272.002z" fill="#FFFCE3"/>
	</g>
</g>
<g>
	<g>
		<path d="M120.001,224.002c-4.418,0-8,3.582-8,8v16c0,4.418,3.582,8,8,8s8-3.582,8-8v-16    C128.001,227.584,124.419,224.002,120.001,224.002z" fill="#FFFCE3"/>
	</g>
</g>
<g>
	<g>
		<path d="M120.001,176.002c-4.418,0-8,3.582-8,8v16c0,4.418,3.582,8,8,8s8-3.582,8-8v-16    C128.001,179.584,124.419,176.002,120.001,176.002z" fill="#FFFCE3"/>
	</g>
</g>
<g>
	<g>
		<path d="M124.654,120.34c-0.002-0.001-0.004-0.001-0.005-0.002c-4.231-1.273-8.693,1.124-9.966,5.355    c-0.001,0.002-0.001,0.004-0.002,0.005c-1.779,5.939-2.681,12.105-2.68,18.304c0,4.418,3.582,8,8,8s8-3.582,8-8    c-0.004-4.639,0.672-9.253,2.008-13.696C131.283,126.075,128.885,121.613,124.654,120.34z" fill="#FFFCE3"/>
	</g>
</g>
<g>
	<g>
		<path d="M158.581,89.8c-1.966-3.551-6.28-5.067-10.036-3.526v-0.048c-6.809,3.257-12.991,7.688-18.264,13.088    c-3.093,3.159-3.039,8.227,0.12,11.32c3.159,3.093,8.227,3.039,11.32-0.12c3.966-4.061,8.615-7.392,13.736-9.84    C159.322,98.534,160.721,93.665,158.581,89.8z" fill="#FFFCE3"/>
	</g>
</g>
<g>
	<g>
		<path d="M200.001,80.002h-16c-4.418,0-8,3.582-8,8s3.582,8,8,8h16c4.418,0,8-3.582,8-8S204.419,80.002,200.001,80.002z" fill="#FFFCE3"/>
	</g>
</g>
<g>
	<g>
		<path d="M253.448,94.381c-0.037-0.033-0.074-0.066-0.111-0.099v-0.016c-5.438-4.877-11.782-8.637-18.672-11.064    c-4.166-1.471-8.737,0.714-10.208,4.88c-1.471,4.166,0.714,8.737,4.88,10.208c4.919,1.737,9.448,4.425,13.328,7.912    c3.264,2.978,8.324,2.745,11.302-0.519C256.944,102.419,256.712,97.359,253.448,94.381z" fill="#FFFCE3"/>
	</g>
</g>
<g>
	<g>
		<path d="M272.001,143.866c-0.072-4.208-0.288-14.312-0.8-17.192c-0.73-4.306-4.802-7.213-9.112-6.504    c-4.339,0.717-7.306,4.776-6.672,9.128c0.216,1.488,0.456,8.864,0.56,14.84c0.074,4.374,3.649,7.878,8.024,7.864h0.136    c4.418-0.074,7.939-3.716,7.864-8.134C272.001,143.868,272.001,143.867,272.001,143.866z" fill="#FFFCE3"/>
	</g>
</g>
<g>
	<g>
		<path d="M264.001,168.002c-4.418,0-8,3.582-8,8v16c0,4.418,3.582,8,8,8s8-3.582,8-8v-16    C272.001,171.584,268.419,168.002,264.001,168.002z" fill="#FFFCE3"/>
	</g>
</g>
<g>
	<g>
		<path d="M264.001,216.002c-4.418,0-8,3.582-8,8v16c0,4.418,3.582,8,8,8s8-3.582,8-8v-16    C272.001,219.584,268.419,216.002,264.001,216.002z" fill="#FFFCE3"/>
	</g>
</g>
<g>
	<g>
		<path d="M264.001,264.002c-4.418,0-8,3.582-8,8v16c0,4.418,3.582,8,8,8s8-3.582,8-8v-16    C272.001,267.584,268.419,264.002,264.001,264.002z" fill="#FFFCE3"/>
	</g>
</g>
<g>
	<g>
		<path d="M264.001,312.002c-4.418,0-8,3.582-8,8v16c0,4.418,3.582,8,8,8s8-3.582,8-8v-16    C272.001,315.584,268.419,312.002,264.001,312.002z" fill="#FFFCE3"/>
	</g>
</g>
<g>
	<g>
		<path d="M277.587,380.428c-0.076-0.142-0.157-0.281-0.242-0.418c-2.384-4.122-4.007-8.639-4.792-13.336    c-0.802-4.345-4.974-7.217-9.319-6.415c-4.248,0.784-7.107,4.8-6.457,9.071c1.098,6.58,3.374,12.908,6.72,18.68    c2.094,3.891,6.945,5.347,10.836,3.254C278.223,389.17,279.68,384.319,277.587,380.428z" fill="#FFFCE3"/>
	</g>
</g>
<g>
	<g>
		<path d="M312.001,400.002c-4.542,0.005-9.052-0.763-13.336-2.272c-4.166-1.471-8.737,0.714-10.208,4.88    c-1.471,4.166,0.714,8.737,4.88,10.208c5.995,2.115,12.307,3.192,18.664,3.184c4.418,0,8-3.582,8-8    S316.419,400.002,312.001,400.002z" fill="#FFFCE3"/>
	</g>
</g>
<g>
	<g>
		<path d="M367.271,397.67c-2.094-3.891-6.945-5.347-10.836-3.254c-0.142,0.076-0.281,0.157-0.418,0.242h-0.016    c-4.117,2.385-8.628,4.011-13.32,4.8c-4.352,0.762-7.263,4.907-6.501,9.259c0.666,3.806,3.957,6.592,7.821,6.621    c0.448,0.002,0.895-0.035,1.336-0.112c6.58-1.1,12.907-3.377,18.68-6.72C367.908,406.412,369.364,401.561,367.271,397.67z" fill="#FFFCE3"/>
	</g>
</g>
<g>
	<g>
		<path d="M384.001,352.002c-4.418,0-8,3.582-8,8c0.005,4.542-0.763,9.052-2.272,13.336c-1.471,4.166,0.714,8.737,4.88,10.208    c4.166,1.471,8.737-0.714,10.208-4.88c2.115-5.995,3.192-12.307,3.184-18.664C392.001,355.584,388.419,352.002,384.001,352.002z" fill="#FFFCE3"/>
	</g>
</g>
<g>
	<g>
		<path d="M384.001,304.002c-4.418,0-8,3.582-8,8v16c0,4.418,3.582,8,8,8s8-3.582,8-8v-16    C392.001,307.584,388.419,304.002,384.001,304.002z" fill="#FFFCE3"/>
	</g>
</g>
<g>
	<g>
		<path d="M120.001,368.002c-4.418,0-8,3.582-8,8v16c0,4.418,3.582,8,8,8s8-3.582,8-8v-16    C128.001,371.584,124.419,368.002,120.001,368.002z" fill="#FFFCE3"/>
	</g>
</g>
<g>
	<g>
		<path d="M64.001,360.002c-17.673,0-32,14.327-32,32c0,17.673,14.327,32,32,32s32-14.327,32-32    C96.001,374.329,81.674,360.002,64.001,360.002z M64.001,408.002c-8.837,0-16-7.163-16-16s7.163-16,16-16s16,7.163,16,16    S72.838,408.002,64.001,408.002z" fill="#FFFCE3"/>
	</g>
</g>
<g>
</g>
<g>
</g>
<g>
</g>
<g>
</g>
<g>
</g>
<g>
</g>
<g>
</g>
<g>
</g>
<g>
</g>
<g>
</g>
<g>
</g>
<g>
</g>
<g>
</g>
<g>
</g>
<g>
</g>
</svg>
