<?xml version="1.0" encoding="iso-8859-1"?>
<!-- Generator: Adobe Illustrator 19.0.0, SVG Export Plug-In . SVG Version: 6.00 Build 0)  -->
<svg xmlns="http://www.w3.org/2000/svg" xmlns:xlink="http://www.w3.org/1999/xlink" version="1.1" id="Capa_1" x="0px" y="0px" viewBox="0 0 496 496" style="enable-background:new 0 0 496 496;" xml:space="preserve" width="512px" height="512px">
<g>
	<g>
		<g>
			<path d="M272,136C272,61.008,210.992,0,136,0S0,61.008,0,136s61.008,136,136,136S272,210.992,272,136z M16,136     C16,69.832,69.832,16,136,16s120,53.832,120,120s-53.832,120-120,120S16,202.168,16,136z" fill="#FFFCE3"/>
			<path d="M113.272,157.576l67.416,33.712l-21.96-76.864L91.312,80.712L113.272,157.576z M145.272,125.576l10.04,35.136     l-28.584-14.288l-10.04-35.136L145.272,125.576z" fill="#FFFCE3"/>
			<path d="M432,384v16h48v48c0,17.648-14.352,32-32,32s-32-14.352-32-32V48H272v16h128v40h-36c-14.616,0-29.112,4.832-40.808,13.6     C311.176,126.616,304,140.976,304,156s7.176,29.384,19.2,38.4l13.432,10.08l3.272,19.616c3.08,18.48,18.92,31.904,37.664,31.904     H400v156.688l-10.344-10.344l-11.312,11.312L400,435.312V448c0,12.304,4.688,23.496,12.32,32H368v-9.696     c0-5.704-1.672-11.232-4.832-15.984l-6.328-9.496C351.488,436.8,342.512,432,332.856,432h-1.72c-4.296,0-8.28-2.136-10.664-5.696     l-3.64-5.48C311.488,412.8,302.512,408,292.856,408c-10.984,0-20.856,6.104-25.768,15.928l-6.4,12.792     c-1.504,3.016-4.2,5.352-7.408,6.424l-7.632,2.536c-7.208,2.4-13.28,7.672-16.664,14.456L219.056,480H128     c-11.624,0-20.864-5.992-26.384-16h15.072c9.432,0,18.296-3.672,24.968-10.344S152,438.12,152,428.688v-3.808     c0-7.368,4.096-13.984,10.68-17.272l17.8-8.904c12.032-6.016,19.52-18.12,19.52-31.584v-9.992     c0-10.784-4.832-20.832-13.248-27.576l-22.264-17.816c-6.248-4.984-14.072-7.736-22.064-7.736H96v-24H80v160     c0,32.968,19.744,56,48,56h320c26.472,0,48-21.528,48-48v-64H432z M400,240h-22.432c-10.888,0-20.096-7.8-21.88-18.528     l-4.32-25.944l-18.56-13.92C324.792,175.584,320,166.016,320,156s4.792-19.584,12.808-25.6c8.936-6.704,20.016-10.4,31.192-10.4     h36V240z M96,440V320h46.424c4.368,0,8.656,1.504,12.064,4.232l22.264,17.808c4.608,3.696,7.248,9.184,7.248,15.088v9.992     c0,7.368-4.096,13.984-10.68,17.272l-17.8,8.904c-12.032,6.016-19.52,18.12-19.52,31.584v3.808c0,5.16-2.008,10.008-5.656,13.656     S121.84,448,116.688,448H96.552C96.208,445.44,96,442.784,96,440z M352,480H236.944l6.36-12.72     c1.504-3.016,4.2-5.352,7.408-6.424l7.632-2.536c7.208-2.4,13.28-7.672,16.664-14.456l6.4-12.784     c2.176-4.368,6.568-7.08,11.448-7.08c4.296,0,8.28,2.136,10.664,5.696l3.64,5.48C312.512,443.2,321.488,448,331.144,448h1.72     c4.296,0,8.28,2.136,10.664,5.704l6.328,9.496c1.4,2.104,2.144,4.568,2.144,7.104V480z" fill="#FFFCE3"/>
			
				<rect x="267.028" y="220.005" transform="matrix(-0.7071 -0.7071 0.7071 -0.7071 323.5931 590.0474)" width="33.944" height="16" fill="#FFFCE3"/>
			
				<rect x="310.122" y="279.995" transform="matrix(0.4472 0.8944 -0.8944 0.4472 438.91 -134.1809)" width="35.775" height="15.999" fill="#FFFCE3"/>
			
				<rect x="342.093" y="351.994" transform="matrix(0.4472 0.8944 -0.8944 0.4472 520.9805 -122.9771)" width="35.775" height="15.999" fill="#FFFCE3"/>
			
				<rect x="148.007" y="353.594" transform="matrix(0.5547 0.8321 -0.8321 0.5547 375.6888 34.0781)" width="16.001" height="28.849" fill="#FFFCE3"/>
			<rect x="216" y="352" width="32" height="16" fill="#FFFCE3"/>
			
				<rect x="267.03" y="324.018" transform="matrix(-0.7071 0.7071 -0.7071 -0.7071 719.5939 365.9703)" width="33.944" height="16" fill="#FFFCE3"/>
			<path d="M136,56c18.672,0,36.84,6.584,51.168,18.528l10.248-12.28C180.216,47.896,158.408,40,136,40c-52.936,0-96,43.064-96,96     c0,22.408,7.896,44.216,22.248,61.424l12.28-10.248C62.584,172.84,56,154.672,56,136C56,91.888,91.888,56,136,56z" fill="#FFFCE3"/>
			<path d="M232,136c0-22.408-7.896-44.216-22.248-61.424l-12.28,10.248C209.416,99.16,216,117.328,216,136     c0,44.112-35.888,80-80,80c-18.672,0-36.84-6.584-51.168-18.528l-10.248,12.28C91.784,224.104,113.592,232,136,232     C188.936,232,232,188.936,232,136z" fill="#FFFCE3"/>
		</g>
	</g>
</g>
<g>
</g>
<g>
</g>
<g>
</g>
<g>
</g>
<g>
</g>
<g>
</g>
<g>
</g>
<g>
</g>
<g>
</g>
<g>
</g>
<g>
</g>
<g>
</g>
<g>
</g>
<g>
</g>
<g>
</g>
</svg>
