<svg id="Capa_1" enable-background="new 0 0 511.914 511.914" height="512" viewBox="0 0 511.914 511.914" width="512" xmlns="http://www.w3.org/2000/svg"><g><path d="m282.017 434.583h-22.436l-11.016-11.615c-2.104-2.218-5.064-3.489-8.122-3.489-3.057 0-6.017 1.272-8.121 3.491l-11.012 11.613h-77.63l-11.084-27.658c-1.545-3.856-5.211-6.334-9.358-6.334-.032 0-.064 0-.097 0-4.187.039-7.852 2.594-9.336 6.51l-10.418 27.482h-30.098c-31.733 0-57.879-25.373-58.284-56.561-.003-.246-.005-.755-.005-.763v-.044c.034-30.764 24.829-56.37 55.642-57.255 5.148-.148 9.181-4.286 9.181-9.42v-245.517l109.211-.196 6.81 14.78c1.797 3.897 5.579 6.35 9.871 6.399 4.322.03 8.128-2.315 10.013-6.171l7.37-15.069 72.491-.129v27.404c0 4.143 3.357 7.5 7.5 7.5s7.5-3.357 7.5-7.5v-27.43l72.28-.129 9.856 11.895c17.612 21.254 43.495 34.673 71.014 36.816l4.175.325v151.511c0 4.143 3.357 7.5 7.5 7.5s7.5-3.357 7.5-7.5v-154.49c0-6.11-4.772-11.269-10.865-11.744l-7.146-.557c-23.493-1.83-45.592-13.286-60.627-31.432l-10.824-13.062c-2.246-2.711-5.551-4.265-9.073-4.265-.006 0-.013 0-.019 0l-81.259.145c-.004 0-.009-.001-.013-.001-.005 0-.009.001-.014.001l-83.238.149c-3.71.004-7.161 2.161-8.791 5.494l-5.099 10.425-4.686-10.171c-1.596-3.464-5.087-5.699-8.897-5.699-.007 0-.014 0-.021 0l-112.519.201v-17.356c0-2.537-1.044-5.006-2.864-6.773-1.811-1.76-4.282-2.711-6.819-2.654-18.858.56-36.498 8.328-49.671 21.874-13.199 13.574-20.469 31.479-20.469 50.416 0 0 .001 282.304.006 282.688.511 39.351 33.386 71.365 73.283 71.365h34.627c3.487 0 6.659-2.191 7.891-5.448l7.555-19.93 8.047 20.082c1.292 3.217 4.366 5.296 7.832 5.296h83.796c3 0 5.904-1.248 7.97-3.427l9.437-9.952 9.436 9.95c2.064 2.179 4.97 3.429 7.972 3.429h24.163c4.143 0 7.5-3.357 7.5-7.5s-3.356-7.5-7.498-7.5zm-267.017-339.053c0-15.01 5.762-29.201 16.223-39.959 9.087-9.345 20.854-15.221 33.6-16.88v266.629c-16.986 1.742-32.674 9.374-44.639 21.818-1.848 1.922-3.576 3.927-5.184 6.008z"/><path d="m424.45 266.926v-16.996h1.312c8.306 0 15.062-6.758 15.062-15.063v-14.107c0-8.306-6.757-15.062-15.062-15.062h-52.211c-8.306 0-15.062 6.757-15.062 15.062v14.106c0 8.306 6.757 15.063 15.062 15.063h1.312v16.98c-19.883 4.474-38.234 14.315-53.209 28.789-2.979 2.879-3.06 7.627-.181 10.604 2.878 2.977 7.627 3.06 10.604.181 18.229-17.619 42.229-27.322 67.579-27.322 53.628 0 97.258 43.63 97.258 97.258s-43.63 97.258-97.258 97.258-97.257-43.63-97.257-97.258c0-16.154 4.039-32.149 11.682-46.255 1.973-3.642.62-8.193-3.022-10.167-3.64-1.973-8.193-.62-10.167 3.022-8.826 16.292-13.492 34.757-13.492 53.399 0 61.899 50.358 112.258 112.257 112.258s112.258-50.358 112.258-112.258c-.001-53.38-37.456-98.174-87.465-109.492zm-50.962-32.059.062-14.169 52.273.062v14.106c0 .035-.028.063-.062.063zm16.374 29.724v-14.66h19.588v14.664c-3.229-.28-6.494-.432-9.794-.432-3.287-.001-6.553.148-9.794.428z"/><path d="m443.349 422.767c-3.014 2.842-3.152 7.589-.311 10.602 2.843 3.016 7.59 3.153 10.602.311 15.948-15.04 24.73-35.375 24.73-57.26 0-43.403-35.311-78.714-78.714-78.714s-78.714 35.311-78.714 78.714 35.311 78.714 78.714 78.714c8.01 0 15.919-1.203 23.508-3.575 3.954-1.235 6.157-5.442 4.921-9.396-1.235-3.954-5.444-6.158-9.396-4.921-6.139 1.919-12.543 2.892-19.033 2.892-35.132 0-63.714-28.582-63.714-63.714s28.582-63.714 63.714-63.714 63.714 28.582 63.714 63.714c0 17.711-7.11 34.171-20.021 46.347z"/><path d="m427.569 336.505c-.001 0-.002 0-.003 0l-46.344 15.478c-2.815.937-5.059 3.178-6.002 5.996l-15.479 46.354c-1.146 3.432-.268 7.152 2.29 9.711 1.816 1.816 4.219 2.786 6.688 2.786 1.01 0 2.03-.162 3.027-.494l46.344-15.478c2.82-.938 5.064-3.183 6.001-5.996l15.479-46.349c1.147-3.433.271-7.154-2.287-9.714-2.558-2.561-6.278-3.44-9.714-2.294zm-41.647 36.786 16.863 16.864-25.318 8.455zm27.469 6.257-16.862-16.863 25.317-8.455z"/><path d="m165.371 213.421c4.142 0 7.5-3.357 7.5-7.5v-14.252c14.152-3.39 24.706-16.139 24.706-31.315 0-17.759-14.448-32.206-32.206-32.206s-32.206 14.447-32.206 32.206c0 15.176 10.554 27.926 24.706 31.315v14.252c0 4.142 3.358 7.5 7.5 7.5zm-17.205-53.068c0-9.487 7.718-17.206 17.206-17.206s17.206 7.719 17.206 17.206-7.719 17.206-17.206 17.206-17.206-7.718-17.206-17.206z"/><path d="m325.548 211.116c0-29.461-23.969-53.43-53.43-53.43h-51.091c-4.142 0-7.5 3.357-7.5 7.5s3.358 7.5 7.5 7.5h51.091c21.19 0 38.43 17.239 38.43 38.43s-17.239 38.43-38.43 38.43h-34.484c-4.142 0-7.5 3.357-7.5 7.5s3.358 7.5 7.5 7.5h34.484c29.461 0 53.43-23.969 53.43-53.43z"/><path d="m191.4 264.546h13.621c4.142 0 7.5-3.357 7.5-7.5s-3.358-7.5-7.5-7.5h-13.621c-24.294 0-44.059 19.765-44.059 44.059s19.765 44.059 44.059 44.059h1.799c4.142 0 7.5-3.357 7.5-7.5s-3.358-7.5-7.5-7.5h-1.799c-16.023 0-29.059-13.035-29.059-29.059s13.036-29.059 29.059-29.059z"/><path d="m253.441 310.504c-3.044-2.81-7.789-2.62-10.598.424l-6.398 6.931-6.398-6.931c-2.809-3.043-7.554-3.232-10.598-.424-3.044 2.81-3.234 7.554-.424 10.598l7.213 7.814-7.213 7.814c-2.81 3.044-2.62 7.788.424 10.598 1.442 1.331 3.266 1.989 5.085 1.989 2.021 0 4.035-.812 5.513-2.413l6.398-6.931 6.398 6.931c1.479 1.602 3.493 2.413 5.513 2.413 1.819 0 3.643-.658 5.085-1.989 3.044-2.81 3.233-7.554.424-10.598l-7.213-7.814 7.213-7.814c2.809-3.045 2.62-7.789-.424-10.598z"/></g></svg>