<?xml version="1.0" encoding="utf-8"?>
<!-- Generator: Adobe Illustrator 23.1.0, SVG Export Plug-In . SVG Version: 6.00 Build 0)  -->
<svg version="1.1" id="Ebene_1" xmlns="http://www.w3.org/2000/svg" xmlns:xlink="http://www.w3.org/1999/xlink" x="0px" y="0px"
	 viewBox="0 0 15 15" style="enable-background:new 0 0 15 15;" xml:space="preserve">
<style type="text/css">
	.st0{fill:#063A38;}
</style>
<g>
	<path class="st0" d="M10.4,14.6c0.4,0,0.8-0.3,1-0.7c0.2-0.4,0-0.9-0.3-1.1L4.9,7.5l6.2-5.3c0.2-0.2,0.4-0.4,0.4-0.7
		c0-0.3-0.1-0.6-0.2-0.8c-0.2-0.2-0.4-0.3-0.7-0.4c-0.3,0-0.6,0.1-0.8,0.3L2.7,6.7C2.5,6.9,2.3,7.2,2.3,7.5c0,0.3,0.1,0.6,0.4,0.8
		l7.1,6.1C9.9,14.5,10.2,14.6,10.4,14.6L10.4,14.6z M10.4,14.6"/>
</g>
</svg>
