<?xml version="1.0"?>
<svg xmlns="http://www.w3.org/2000/svg" viewBox="0 0 512 512" width="512px" height="512px"><g id="outline"><path d="M421.5,485.284l14.059,9.372A8,8,0,0,0,448,488V448a8,8,0,0,0-5.471-7.589A27.065,27.065,0,0,1,424,414.7V400a8,8,0,0,0-2.794-6.074l-38.54-33.033A41.957,41.957,0,0,1,368,329a60.787,60.787,0,0,0-.412-6.98l11.25-4.821a61.576,61.576,0,0,0,9.6-107.858A8,8,0,0,0,376,216v34.5A21.525,21.525,0,0,1,354.5,272H328v.6a60.788,60.788,0,0,0-6.081-1.782l-75.791-17.834A49.457,49.457,0,0,1,208,204.849V176a40.045,40.045,0,0,0,40-40,8,8,0,0,0-8-8H200V105.889L214.574,76.74l23.083-23.083a8,8,0,0,0,0-11.314l-32-32L194.343,21.657,220.687,48,208,60.686,181.657,34.343,170.343,45.657,198.266,73.58,187.056,96H156.944L143.155,68.422l-14.31,7.156L139.056,96H124.944L111.155,68.422l-14.31,7.156,16,32A8,8,0,0,0,120,112h64v16h-8a8.019,8.019,0,0,0-.992.062l-64,8A8,8,0,0,0,104,144a37.375,37.375,0,0,0,29.965,36.551L144,182.558V222.7l-13.167,39.5L92.656,251.3a31.522,31.522,0,0,0-38.564,40.278L72.41,346.53a8,8,0,0,0,2.469,3.616l48,40A8,8,0,0,0,136,384V344a8,8,0,0,0-2.794-6.074l-16.46-14.108-2.517-15.11,24.841,9.937,3.661,4.575A97.521,97.521,0,0,0,219.256,360H291.47l.121.2a128.5,128.5,0,0,0,64.816,54l20.723,7.771A105.722,105.722,0,0,0,421.5,485.284ZM392,250.5V234.933a45.819,45.819,0,0,1,8,25.911A45.265,45.265,0,0,1,372.535,302.5l-8.957,3.839A59.409,59.409,0,0,0,351.8,288h2.7A37.542,37.542,0,0,0,392,250.5ZM208,160V144h22.629A24.041,24.041,0,0,1,208,160ZM386.809,408.509l-24.785-9.294a112.435,112.435,0,0,1-56.712-47.244l-2.452-4.086A8,8,0,0,0,296,344H219.256a81.6,81.6,0,0,1-64.03-30.775L150.247,307a8,8,0,0,0-3.276-2.43l-40-16a8,8,0,0,0-10.863,8.743l5.333,32a8.008,8.008,0,0,0,2.686,4.759L120,347.68v19.239L86.87,339.311l-17.6-52.8a15.523,15.523,0,0,1,18.99-19.834L133.8,279.692a8,8,0,0,0,9.787-5.162l16-48A8.027,8.027,0,0,0,160,224V176a8,8,0,0,0-6.431-7.845L137.1,164.862a21.345,21.345,0,0,1-15.941-13.945L176.5,144H192v60.849a65.455,65.455,0,0,0,50.463,63.714L318.255,286.4a43.6,43.6,0,0,1,30.607,26.245l-.013.006.145.338A43.964,43.964,0,0,1,352,329a57.937,57.937,0,0,0,20.254,44.038L408,403.68V414.7a43.039,43.039,0,0,0,24,38.64v19.71l-1.621-1.081a89.889,89.889,0,0,1-38.534-57.54A8,8,0,0,0,386.809,408.509Z" fill="#004239"/></g></svg>
