<?xml version="1.0" encoding="iso-8859-1"?>
<!-- Generator: Adobe Illustrator 19.0.0, SVG Export Plug-In . SVG Version: 6.00 Build 0)  -->
<svg xmlns="http://www.w3.org/2000/svg" xmlns:xlink="http://www.w3.org/1999/xlink" version="1.1" id="Layer_1" x="0px" y="0px" viewBox="0 0 511.998 511.998" style="enable-background:new 0 0 511.998 511.998;" xml:space="preserve" width="512px" height="512px">
<g>
	<g>
		<path d="M437.377,85.328c-5.875,0-10.656,4.766-10.656,10.641c0,0.141-0.156,13.25-5.969,27.266    c-4.188,10.172-10.203,18.125-17.953,23.844c2.234-7.969,4.203-16.141,5.938-24.5c12.578-60.844,7.578-109.984,7.25-113V9.562    c0-0.016,0-0.047-0.016-0.062c-0.563-5.344-5.094-9.5-10.594-9.5c-5.891,0-10.656,4.766-10.656,10.672    c0,0.375,0.016,0.781,0.062,1.156c0.047,0.469,5.062,48.781-7.062,107.062c-5.641,27.031-14.062,51.969-25.062,74.406    c-11.031-16.453-18.062-35.938-20.969-58.125c-2.781-21.406-0.453-37.406-0.438-37.562c0.062-0.531,0.125-1.062,0.125-1.609    c0-5.891-4.781-10.672-10.656-10.672c-5.344,0-9.75,3.938-10.531,9.062l-0.031-0.016c-0.438,2.844-9.812,67.734,31.188,119.578    c-7.578,12.406-16.094,23.906-25.5,34.438c-1.344-8.438-4.031-15.688-8.094-21.656c-6.453-9.5-14.094-12.359-15.812-12.906    c-1.016-0.312-2.094-0.5-3.219-0.5c-5.906,0-10.688,4.781-10.688,10.672c0,4.781,3.156,8.828,7.5,10.172    c-0.062,0-0.188-0.047-0.391-0.125c0.125,0.062,3.109,1.344,5.844,6.094c2.656,4.656,5.422,13.281,4.297,28.5    c-7.844,6.781-16.156,13-24.906,18.656c-4.5,0.391-9.289,1.188-14.523,2.438c-2.836,0.594-8.039,1.5-10.93,1.641    c-2.906-0.141-8.164-1.047-11.039-1.641c-4.203-1-8.117-1.719-11.82-2.156c-8.922-5.734-17.367-12.062-25.328-18.938    c-1.148-15.219,1.625-23.844,4.281-28.5c2.727-4.75,5.719-6.031,5.844-6.094c-0.195,0.078-0.32,0.125-0.383,0.125    c4.336-1.344,7.484-5.391,7.484-10.172c0-5.891-4.781-10.672-10.672-10.672c-1.125,0-2.211,0.188-3.234,0.5    c-1.703,0.562-9.352,3.422-15.797,12.906c-4.062,5.969-6.758,13.219-8.109,21.656c-9.406-10.531-17.906-22.031-25.484-34.438    c40.992-51.844,31.609-116.734,31.172-119.578l-0.016,0.016c-0.781-5.125-5.188-9.062-10.531-9.062    c-5.891,0-10.664,4.781-10.664,10.672c0,0.547,0.055,1.094,0.133,1.609l-0.008,0.016c0.086,0.562,7.57,52.234-21.406,95.641    c-11.016-22.406-19.422-47.344-25.055-74.375c-12.141-58.281-7.117-106.594-7.062-107.062c0.039-0.375,0.062-0.781,0.062-1.156    C117.291,4.766,112.518,0,106.627,0c-5.5,0-10.023,4.156-10.602,9.5c0,0.016-0.008,0.047-0.008,0.062v0.016    c-0.328,3.031-5.312,52.172,7.25,113c1.727,8.359,3.711,16.531,5.938,24.5c-7.75-5.719-13.758-13.672-17.961-23.844    c-5.805-14.016-5.953-27.125-5.953-27.266c-0.016-5.875-4.781-10.641-10.664-10.641c-5.891,0-10.664,4.781-10.664,10.672    c0,0.672,0.078,16.828,7.25,34.625c9.062,22.484,25.289,37.766,47.133,44.547c6,16,13.094,31.062,21.25,45.094    c16.344,28.094,36.969,52.031,61.5,71.406c-4.781,2.078-9.164,4.688-13.547,7.453c-13.625-4.234-53.125-16.203-79.367-21.578    l-1.109-0.219h-1.07c-4.977,0-10.359,3.578-11.008,10.406c-0.703,7.344,4.773,23.062,16.328,37.75    c9.586,12.172,26.539,27.562,54.305,35.234c-3.891,48.281,14.023,73.141,36.336,104.109c7.109,9.875,14.461,20.078,22.18,32.281    c1.375,2.188,10.258,14.891,30.68,14.891h0.125c20.461,0,29.336-12.781,30.68-14.906c7.703-12.203,15.047-22.391,22.156-32.25    c22.312-30.984,40.219-55.828,36.344-104.125c27.859-7.688,45.094-23.125,54.906-35.359c11.469-14.281,17.609-30.406,16.906-37.75    c-0.578-5.969-5.188-10.312-10.984-10.312h-1.141l-1.062,0.219c-26.281,5.375-66.719,17.438-80.531,21.625    c-3.938-2.484-7.906-4.859-12.141-6.844c24.891-19.469,45.797-43.625,62.328-72.031c8.156-14.031,15.25-29.094,21.25-45.094    c21.844-6.781,38.062-22.062,47.125-44.547c7.188-17.797,7.25-33.953,7.25-34.625C448.033,90.109,443.268,85.328,437.377,85.328z     M267.618,485.654c-0.015,0.018-0.022,0.018-0.03,0.049l0.086-0.219l-0.141,0.281c-0.711,0.938-4.258,4.906-12.586,4.906h-0.141    c-8.703,0-12.18-4.344-12.672-5.016c-0.641-1.016-1.281-2.016-1.922-3.016c3.586-1.453,8.641-2.641,15.586-2.641    c0.047,0,0.094,0,0.141,0c5.953,0.016,10.516,0.891,13.984,2.047C269.157,483.233,268.384,484.436,267.618,485.654z     M313.518,318.892l5.593,3.53l4.703-1.453c0.438-0.141,35.641-11.016,65.062-18.359c-2,3.406-4.578,7.219-7.906,11.141    c-8.609,10.109-24.344,23.203-50.484,28.266l-9.859,1.906l1.312,9.953c6.094,46.359-8.031,65.984-31.469,98.484    c-2.656,3.688-5.438,7.562-8.312,11.641c-6.344-3.016-14.867-5.297-26.164-5.328c-0.07,0-0.133,0-0.203,0    c-12.234,0-21.195,2.688-27.656,6.094c-3.07-4.375-6.039-8.5-8.859-12.406c-23.43-32.5-37.57-52.141-31.469-98.484l1.312-9.953    l-9.859-1.906c-26.062-5.047-41.508-18.094-49.875-28.125c-3.336-4-5.875-7.875-7.797-11.344    c29.18,7.312,63.859,18.266,64.281,18.406l4.734,1.5l5.633-3.578c10.312-6.547,16.539-10.516,27.148-10.516    c4.5,0,9.633,0.719,15.695,2.172l0.367,0.078c0.953,0.188,9.523,1.922,15.125,2.094l0.352,0.031l0.352-0.031    c5.602-0.172,14.102-1.906,15.055-2.094l0.336-0.078c6.055-1.453,11.195-2.172,15.711-2.172    C296.971,308.361,303.205,312.33,313.518,318.892z" fill="#004239"/>
	</g>
</g>
<g>
	<g>
		<path d="M309.347,373.328c-1.719,0-3.344,0.422-4.781,1.141v-0.016l-21.345,10.672l0.016,0.016    c-3.484,1.75-5.891,5.344-5.891,9.531c0,5.875,4.766,10.656,10.656,10.656c1.719,0,3.328-0.406,4.766-1.125h0.016l0.578-0.281    c1.562,0.891,3.375,1.406,5.297,1.406c5.469,0,9.938-4.094,10.594-9.359l4.844-2.422v-0.016c3.5-1.75,5.906-5.359,5.906-9.531    C320.003,378.109,315.222,373.328,309.347,373.328z" fill="#004239"/>
	</g>
</g>
<g>
	<g>
		<path d="M228.768,385.141l0.008-0.016l-21.336-10.672l-0.008,0.016c-1.43-0.719-3.047-1.141-4.766-1.141    c-5.891,0-10.664,4.781-10.664,10.672c0,4.172,2.406,7.781,5.898,9.531v0.016l4.859,2.422c0.641,5.266,5.125,9.359,10.578,9.359    c1.93,0,3.742-0.516,5.305-1.406l0.586,0.281h0.008c1.438,0.719,3.047,1.125,4.766,1.125c5.891,0,10.664-4.781,10.664-10.656    C234.666,390.484,232.26,386.891,228.768,385.141z" fill="#004239"/>
	</g>
</g>
<g>
</g>
<g>
</g>
<g>
</g>
<g>
</g>
<g>
</g>
<g>
</g>
<g>
</g>
<g>
</g>
<g>
</g>
<g>
</g>
<g>
</g>
<g>
</g>
<g>
</g>
<g>
</g>
<g>
</g>
</svg>
