<?xml version="1.0"?>
<svg xmlns="http://www.w3.org/2000/svg" id="Capa_1" enable-background="new 0 0 512 512" height="512px" viewBox="0 0 512 512" width="512px"><g><path d="m113.934 254.534c-.001-.002-.003-.005-.004-.007-19.85-32.004-57.111-52.898-98.213-55.446l-.432-1.728c-.779-3.116.06-6.224 2.301-8.525 2.242-2.301 5.327-3.221 8.462-2.525l122.933 27.318c4.048.902 8.05-1.65 8.948-5.694s-1.651-8.05-5.694-8.948l-15.113-3.359c3.449-5.317 7.254-10.401 11.388-15.218l5.403 7.204c4.521 6.029 11.724 9.628 19.267 9.628 5.238 0 10.226-1.665 14.427-4.814 5.143-3.857 8.476-9.486 9.385-15.85s-.714-12.701-4.572-17.843l-6.783-9.044c5.122-2.939 10.396-5.562 15.811-7.823 8.885 7.993 13.919 19.187 13.919 31.306 0 4.142 3.358 7.5 7.5 7.5s7.5-3.358 7.5-7.5c0-13.499-4.854-26.526-13.38-36.735 12.591-3.6 25.701-5.465 39.013-5.465s26.422 1.866 39.013 5.465c-8.525 10.208-13.38 23.236-13.38 36.735 0 4.142 3.357 7.5 7.5 7.5s7.5-3.358 7.5-7.5c0-12.119 5.034-23.313 13.919-31.306 5.415 2.262 10.69 4.884 15.812 7.823l-6.783 9.044c-7.962 10.616-5.802 25.73 4.813 33.692 4.2 3.15 9.189 4.814 14.428 4.814 7.542 0 14.744-3.599 19.266-9.628l5.404-7.205c4.134 4.817 7.939 9.901 11.388 15.219l-15.113 3.358c-4.044.898-6.593 4.905-5.694 8.948.898 4.044 4.908 6.597 8.948 5.694l122.933-27.318c3.139-.696 6.221.225 8.462 2.524 2.241 2.302 3.08 5.409 2.301 8.526l-.432 1.728c-40.968 2.539-78.114 23.307-98.013 55.134-.301.528-.63 1.217-.882 2.058-.343 1.147-.417 2.16-.412 2.896.415 4.425.625 8.932.625 13.396 0 41.245-17.939 80.357-49.217 107.31-1.23 1.06-2.082 2.489-2.43 4.074-2.96 13.485-5.31 27.133-7.078 40.824-12.31-9.042-26.044-16.041-40.557-20.649.24-1.746.196-3.544-.169-5.327-1.066-5.21-4.649-9.503-9.585-11.483-20.911-8.391-43.953-8.416-64.876-.072l-.201.08c-4.946 1.972-8.54 6.263-9.613 11.478-.366 1.779-.413 3.574-.176 5.318-14.519 4.608-28.259 11.609-40.574 20.655-1.768-13.692-4.117-27.339-7.077-40.824-.348-1.585-1.201-3.014-2.43-4.074-18.821-16.218-33.092-37.111-41.27-60.421-1.372-3.909-5.651-5.965-9.56-4.594-3.909 1.372-5.965 5.652-4.594 9.56 8.768 24.989 23.859 47.462 43.723 65.146 4.937 23.091 8.096 46.642 9.392 70.045l.209 3.77c.015.274.045.547.09.818 2.999 17.992 14.529 33.603 30.843 41.76 7.902 3.951 16.748 6.04 25.583 6.04h21.4c6.413 0 12.248-2.521 16.566-6.625 4.318 4.104 10.154 6.625 16.567 6.625h21.399c8.836 0 17.682-2.088 25.582-6.039 16.315-8.157 27.846-23.768 30.844-41.761.046-.271.076-.544.091-.818l.209-3.77c1.296-23.402 4.454-46.954 9.393-70.044 33.407-29.738 52.516-72.233 52.516-117.001 0-1.442-.026-2.888-.066-4.334l15.913 3.978c5.005 1.251 10.094 1.861 15.156 1.861 16.557-.001 32.814-6.522 44.741-18.451 8.081-8.082 13.818-18.214 16.591-29.302l6.332-25.328c2.037-8.151-.246-16.611-6.108-22.63-5.866-6.015-14.264-8.52-22.463-6.698l-92.292 20.509c-5.123-8.547-11.063-16.589-17.722-24.026l28.306-37.741c27.463-2.378 53.354-12.706 73.238-29.275 24.357-20.298 37.771-47.665 37.771-77.06 0-6.429-2.503-12.473-7.049-17.019-4.545-4.545-10.589-7.048-17.018-7.048-13.21 0-24.006 10.891-24.066 24.275-.046 10.3-3.59 20.385-10.273 29.29-9.465-2.602-16.143-11.224-16.143-21.214 0-6.541-2.579-12.659-7.261-17.227-4.682-4.567-10.888-7.01-17.409-6.832-13.068.322-23.593 11.432-23.46 24.764.177 17.768 7.164 34.808 19.363 47.628-6.429 1.404-13.068 2.125-19.81 2.149-.028 0-.057 0-.085 0-6.808 0-13.547-2.853-18.502-7.835-4.822-4.847-7.445-11.091-7.388-17.581.058-6.588-2.496-12.759-7.192-17.377s-10.906-7.065-17.503-6.898c-13.08.336-23.592 11.527-23.432 24.946.295 24.892 13.482 48.105 34.259 61.372l-13.604 18.139c-7.381-4.353-15.071-8.072-23.002-11.135-.266-.125-.539-.232-.816-.325-17.639-6.699-36.439-10.172-55.609-10.172-19.169 0-37.968 3.473-55.605 10.171-.279.093-.554.201-.822.327-7.93 3.063-15.619 6.782-22.999 11.134l-13.604-18.139c20.776-13.268 33.963-36.481 34.259-61.372.159-13.419-10.353-24.61-23.433-24.946-6.59-.173-12.806 2.28-17.502 6.898s-7.251 10.789-7.192 17.377c.057 6.49-2.566 12.734-7.388 17.582-4.976 5.003-11.721 7.881-18.587 7.834-6.741-.023-13.38-.745-19.81-2.149 12.199-12.821 19.188-29.86 19.363-47.628.133-13.333-10.391-24.442-23.459-24.765-6.553-.178-12.729 2.265-17.409 6.832-4.683 4.568-7.261 10.686-7.261 17.227 0 9.991-6.678 18.613-16.143 21.214-6.682-8.903-10.227-18.989-10.273-29.29-.061-13.384-10.858-24.273-24.067-24.274-.001 0-.001 0-.001 0-6.428 0-12.472 2.504-17.018 7.049s-7.049 10.589-7.049 17.018c0 24.125 8.939 46.812 25.851 65.607 2.77 3.079 7.513 3.33 10.592.559s3.329-7.513.559-10.592c-14.394-15.996-22.002-35.214-22.002-55.574 0-2.422.943-4.699 2.656-6.412 1.712-1.712 3.989-2.655 6.41-2.655h.001c4.892 0 9.044 4.279 9.067 9.342.064 14.36 5.196 28.274 14.84 40.236 2.688 3.334 6.943 4.945 11.103 4.198 17.657-3.161 30.473-18.48 30.473-36.426 0-2.464.972-4.769 2.736-6.491 1.763-1.72 4.103-2.629 6.565-2.573 4.92.122 8.881 4.437 8.83 9.621-.154 15.581-6.983 30.456-18.735 40.81-3.194 2.813-4.6 7.138-3.669 11.285.933 4.154 4.058 7.467 8.155 8.647 9.517 2.741 19.49 4.149 29.643 4.184h.136c10.772 0 21.386-4.462 29.138-12.256 7.672-7.713 11.846-17.761 11.752-28.293-.022-2.483.94-4.809 2.71-6.549 1.769-1.739 4.121-2.657 6.6-2.598 4.925.126 8.882 4.511 8.819 9.773-.264 22.246-13.467 42.815-33.636 52.401-2.032.966-3.524 2.793-4.063 4.978s-.068 4.496 1.282 6.296l34.607 46.143c1.453 1.938 2.065 4.325 1.723 6.722s-1.598 4.518-3.535 5.97c-1.584 1.188-3.461 1.815-5.428 1.815-2.889 0-5.537-1.322-7.266-3.628l-44.947-59.93c-1.319-1.759-3.344-2.85-5.538-2.986-20.72-1.279-40.407-7.498-56.934-17.986-3.499-2.221-8.132-1.183-10.351 2.314s-1.184 8.132 2.314 10.351c17.722 11.246 38.591 18.141 60.554 20.034l28.305 37.74c-6.66 7.436-12.599 15.479-17.722 24.026l-92.293-20.51c-8.2-1.823-16.598.682-22.461 6.702-5.862 6.019-8.146 14.479-6.107 22.629l6.332 25.328c2.772 11.088 8.509 21.221 16.59 29.302 11.929 11.929 28.183 18.451 44.74 18.451 5.062 0 10.153-.61 15.156-1.861l15.914-3.978c-.039 1.446-.065 2.892-.065 4.334 0 6.996.466 14.034 1.386 20.919.504 3.769 3.724 6.508 7.425 6.508.331 0 .666-.022 1.002-.067 4.106-.548 6.99-4.321 6.441-8.427-.832-6.229-1.254-12.6-1.254-18.934 0-4.465.21-8.969.624-13.388.065-.597.091-1.538-.202-2.632-.235-.879-.597-1.556-.889-2.012zm-18.804-.678-15.216 3.804c-16.287 4.072-33.78-.773-45.651-12.645-6.16-6.16-10.532-13.882-12.645-22.333l-2.062-8.248c30.56 3.089 58.184 17.522 75.574 39.422zm243.692-71.621c-1.968 0-3.845-.628-5.428-1.814-3.999-3-4.813-8.694-1.813-12.693l34.607-46.143c1.35-1.8 1.82-4.111 1.282-6.296-.539-2.185-2.03-4.012-4.063-4.978-20.169-9.585-33.372-30.154-33.637-52.401-.063-5.262 3.895-9.646 8.819-9.773.081-.002.161-.003.241-.003 2.397 0 4.647.918 6.358 2.601 1.769 1.74 2.732 4.066 2.71 6.549-.093 10.531 4.08 20.579 11.752 28.292 7.753 7.794 18.366 12.257 29.139 12.257h.137c10.152-.036 20.126-1.443 29.642-4.184 4.098-1.18 7.223-4.493 8.155-8.647.932-4.148-.475-8.472-3.668-11.285-11.753-10.354-18.581-25.228-18.735-40.811-.052-5.183 3.909-9.499 8.829-9.62 2.493-.063 4.802.853 6.564 2.573 1.765 1.721 2.736 4.026 2.736 6.491 0 17.945 12.815 33.265 30.475 36.427 4.159.743 8.415-.865 11.102-4.199 9.643-11.962 14.775-25.876 14.84-40.236.022-5.064 4.175-9.342 9.066-9.342 2.423 0 4.699.943 6.412 2.655 1.712 1.712 2.655 3.989 2.655 6.412 0 24.864-11.498 48.139-32.376 65.537-18.291 15.243-42.459 24.507-68.052 26.086-2.194.136-4.219 1.227-5.538 2.986l-44.947 59.93c-1.728 2.306-4.375 3.629-7.264 3.629zm-110.256 219.592c.086-.413.37-.527.473-.568l.201-.08c8.643-3.447 17.721-5.169 26.798-5.169 9.129 0 18.257 1.743 26.941 5.227.107.043.392.157.476.57.085.413-.132.629-.214.711l-20.83 20.83c-3.535 3.535-9.287 3.535-12.822 0l-20.809-20.809c-.082-.081-.298-.298-.214-.712zm10.868 95.173h-21.4c-6.518 0-13.045-1.54-18.874-4.456-11.919-5.959-20.376-17.31-22.688-30.42l-.186-3.34c-.303-5.476-.723-10.96-1.223-16.445 13.739-11.674 29.912-20.284 47.18-25.123l16.739 16.739c2.761 2.761 6.038 4.687 9.518 5.823v48.155c0 5-4.067 9.067-9.066 9.067zm96.096-34.876c-2.313 13.11-10.77 24.462-22.689 30.421-5.829 2.915-12.355 4.456-18.874 4.456h-21.399c-4.999 0-9.066-4.067-9.066-9.067v-48.156c3.48-1.136 6.756-3.062 9.518-5.823l16.739-16.739c17.268 4.839 33.442 13.449 47.18 25.123-.5 5.484-.919 10.968-1.222 16.444zm142.208-217.109c-11.871 11.873-29.364 16.715-45.651 12.645l-15.215-3.804c17.389-21.899 45.013-36.333 75.574-39.422l-2.062 8.247c-2.114 8.451-6.486 16.174-12.646 22.334z" fill="#004239"/><path d="m195.511 349.296c.983 3.237 3.957 5.323 7.174 5.323.722 0 1.455-.105 2.182-.325 3.963-1.204 6.201-5.392 4.998-9.355-8.62-28.393-29.527-46.738-53.264-46.738-4.142 0-7.5 3.358-7.5 7.5s3.358 7.5 7.5 7.5c16.98-.001 32.254 14.168 38.91 36.095z" fill="#004239"/><path d="m309.316 354.618c3.217 0 6.19-2.086 7.174-5.323 6.656-21.926 21.93-36.094 38.91-36.094 4.143 0 7.5-3.358 7.5-7.5s-3.357-7.5-7.5-7.5c-23.736 0-44.644 18.345-53.264 46.737-1.203 3.963 1.034 8.152 4.998 9.355.727.22 1.46.325 2.182.325z" fill="#004239"/></g></svg>
