<?xml version="1.0"?>
<svg xmlns="http://www.w3.org/2000/svg" id="Capa_1" enable-background="new 0 0 511.975 511.975" height="512px" viewBox="0 0 511.975 511.975" width="512px"><g id="XMLID_1019_"><g id="XMLID_995_"><path id="XMLID_1029_" d="m426.545 337.727c-18.835 0-34.159 15.324-34.159 34.159s15.324 34.159 34.159 34.159 34.159-15.324 34.159-34.159-15.324-34.159-34.159-34.159zm0 48.318c-7.808 0-14.159-6.352-14.159-14.159 0-7.808 6.352-14.159 14.159-14.159s14.159 6.352 14.159 14.159-6.352 14.159-14.159 14.159z" fill="#004239"/><path id="XMLID_1032_" d="m491.574 287.072c-26.379-45.689-74.344-73.941-125.68-76.299 7.42-17.964 7.912-37.941 1.053-56.857-13.114-36.161-36.469-67.256-67.539-89.922-4.462-3.254-10.717-2.277-13.973 2.185-3.255 4.462-2.276 10.717 2.186 13.972 8.848 6.455 16.99 13.678 24.369 21.561-17.572 11.753-28.38 31.499-28.38 53.311 0 27.184 16.981 50.461 40.886 59.825-14.009 4.298-25.838 13.103-33.975 25.203l-65.825-.021c4.186-6.615 6.621-14.444 6.621-22.834 0-23.619-19.215-42.834-42.834-42.834s-42.835 19.215-42.835 42.834c0 8.391 2.435 16.219 6.621 22.834l-73.013.021c-19.555 0-37.208-9.183-48.433-25.195-11.226-16.012-13.84-35.738-7.174-54.121 2.995-8.258 6.592-16.184 10.721-23.743 11.306 17.133 30.681 28.031 52.117 28.031 34.417 0 62.418-28 62.418-62.417 0-17.701-7.5-34.221-20.069-45.841 18.031-6.354 37.276-9.778 57.06-9.778 7.819 0 15.698.535 23.419 1.589 5.481.743 10.515-3.083 11.262-8.555s-3.083-10.514-8.555-11.261c-8.615-1.176-17.405-1.773-26.126-1.773-39.765 0-77.994 12.066-110.555 34.894-32.561 22.827-56.937 54.652-70.494 92.036-8.921 24.599-5.423 50.995 9.598 72.42 15.021 21.426 38.644 33.714 64.81 33.714h50.743c-.688 39.792-7.317 81.476-19.748 124.022-2.38 8.145-3.42 16.623-3.092 25.201.771 20.13 9.214 39.039 23.775 53.242 14.556 14.198 33.667 22.175 53.812 22.464.39.005.776.008 1.165.008 14.072 0 27.608-3.675 39.607-10.684 5.396 3.479 11.346 6.161 17.719 7.917 5.65 1.558 11.388 2.328 17.086 2.328 11.059 0 21.973-2.902 31.82-8.588 5.727-3.306 10.87-7.441 15.289-12.292 13.573-14.899 29.151-28.837 46.397-41.531l17.7 30.657c10.604 18.365 28.8 29.964 49.923 31.824 1.965.173 3.917.258 5.857.258 18.919 0 36.478-8.148 48.857-22.867 41.289-49.086 47.48-119.388 15.409-174.938zm-383.913-221.217c13.039 7.518 21.245 21.489 21.245 36.751 0 23.389-19.028 42.417-42.418 42.417-17.843 0-33.577-11.105-39.714-27.495 16.047-21.799 36.98-39.47 60.887-51.673zm267.134 165.718c19.893 2.4 38.948 9.269 55.724 19.935-.397 10.566-6.172 20.345-15.496 25.728-14.823 8.558-33.847 3.462-42.404-11.362-6.329-10.962-5.306-24.478 2.176-34.301zm-71.185-76.55c0-15.715 8.148-29.874 21.256-37.801 9.733 13.217 17.59 27.826 23.278 43.513 4.625 12.753 4.774 26.15.689 38.507-.329.007-.659.018-.986.018-24.392 0-44.237-19.844-44.237-44.237zm-15.579 153.149 17.588 30.463c-16.269 6.934-33.64 12.878-51.859 17.732-7.364-30.346-11.38-62.66-11.953-96.317h39.632c-4.264 16.173-2.022 33.201 6.592 48.122zm-122.383-90.977c0-12.591 10.244-22.834 22.835-22.834s22.834 10.244 22.834 22.834-10.243 22.834-22.834 22.834-22.835-10.243-22.835-22.834zm19.385 247.786c-31.266-.447-56.693-25.253-57.889-56.472-.246-6.42.529-12.754 2.304-18.827 12.967-44.379 19.875-87.953 20.562-129.632h71.787c.584 35.65 4.883 69.912 12.786 102.107-2.906 1.276-5.73 2.763-8.446 4.473-28.728 18.087-38.259 55.486-21.697 85.143 1.606 2.876 3.41 5.594 5.39 8.146-7.741 3.457-16.16 5.192-24.797 5.062zm107.614-14.78c-3.029 3.325-6.563 6.165-10.504 8.44-10.251 5.918-22.182 7.444-33.592 4.299-11.409-3.145-20.874-10.574-26.651-20.918-11.373-20.367-4.832-46.049 14.892-58.467 4.059-2.555 8.441-4.417 13.027-5.536 23.294-5.684 45.404-13.061 65.868-21.945l28.085 48.645c-19.019 13.823-36.194 29.093-51.125 45.482zm168.213-1.062c-9.393 11.168-23.124 16.836-37.653 15.559-14.538-1.28-27.061-9.263-34.357-21.901l-83.498-144.624c-7.297-12.638-7.949-27.474-1.789-40.703 6.159-13.23 17.933-22.28 32.302-24.831 5.502-.977 11.005-1.589 16.49-1.863-5.944 14.33-5.193 31.005 2.945 45.1 9.443 16.356 26.634 25.511 44.289 25.511 8.652 0 17.418-2.2 25.436-6.829 11.459-6.616 19.656-17.266 23.341-29.474 10.082 9.107 18.871 19.832 25.89 31.989 27.876 48.285 22.494 109.396-13.396 152.066z" fill="#004239"/><path id="XMLID_2118_" d="m254.167 60.227c2.631 0 5.21-1.07 7.07-2.93 1.86-1.87 2.93-4.44 2.93-7.07 0-2.64-1.069-5.21-2.93-7.07-1.86-1.87-4.439-2.93-7.07-2.93-2.63 0-5.21 1.06-7.069 2.93-1.86 1.86-2.931 4.43-2.931 7.07 0 2.63 1.07 5.2 2.931 7.07 1.859 1.86 4.439 2.93 7.069 2.93z" fill="#004239"/></g></g></svg>
