<?xml version="1.0" encoding="iso-8859-1"?>
<!-- Generator: Adobe Illustrator 19.0.0, SVG Export Plug-In . SVG Version: 6.00 Build 0)  -->
<svg xmlns="http://www.w3.org/2000/svg" xmlns:xlink="http://www.w3.org/1999/xlink" version="1.1" id="Capa_1" x="0px" y="0px" viewBox="0 0 512 512" style="enable-background:new 0 0 512 512;" xml:space="preserve" width="512px" height="512px">
<g>
	<g>
		<path d="M58.78,114.263c-3.942-1.483-8.33,0.518-9.813,4.449c-5.628,14.979-19.146,54.058-18.499,70.399    c0.163,4.104,3.535,7.324,7.609,7.324c4.325,0,7.787-3.596,7.619-7.924c-0.488-12.266,10.756-45.468,14.832-57.02h0.01    c1.026-2.905,1.95-5.435,2.692-7.426C64.713,120.134,62.722,115.736,58.78,114.263z" fill="#004239"/>
	</g>
</g>
<g>
	<g>
		<path d="M185.915,107.212c-16.462-17.801-44.256-26.021-64.761-26.321c-4.175,0-7.578,3.373-7.619,7.558    c-0.03,4.206,3.352,7.649,7.558,7.68c7.177,0,20.989,2.331,32.111,6.948c20.853,8.674,19.887,16.924,27.123,16.924    C186.948,120.002,190.409,112.073,185.915,107.212z" fill="#004239"/>
	</g>
</g>
<g>
	<g>
		<path d="M101.924,162.882c-6.636-16.396-4.841-35.816-3.474-53.678c0.315-4.195-2.834-7.853-7.03-8.168    c-4.195-0.305-7.853,2.834-8.167,7.03c-1.53,20.384-3.262,41.171,4.541,60.525c1.556,3.851,5.954,5.798,9.915,4.206    C101.619,171.222,103.499,166.783,101.924,162.882z" fill="#004239"/>
	</g>
</g>
<g>
	<g>
		<path d="M324.895,121.983c-21.536-37.384-78.242-76.962-144.831-86.216c-0.102-0.051-46.984-9.092-91.265,12.292    c-0.02,0-0.041,0.01-0.051,0.03C17.293,80.414-10.755,179.501,3.67,254.512c2.844,17.056,8.696,36.185,19.372,49.97    c9.071,13.081,20.901,21.557,36.886,21.557c29.104,0,62.394-28.048,106.96-57.416c11.164,25.173,45.125,64.873,27.256,130.619    c-4.775,17.493-2.519,33.341,4.988,46.923c1.392,2.509,3.992,3.931,6.674,3.931c5.719,0,9.478-6.187,6.664-11.307    c-6.339-11.449-6.938-23.233-3.616-35.565c10.494-38.704,5.597-76.484-11.581-109.368c-15.644-29.917-0.406-0.792-35.545-67.971    c13.795-8.361,31.167-18.336,46.526-26.402c49.513,55.029,62.882,66.61,77.459,98.63c1.707,3.779,6.197,5.547,10.087,3.779    c3.83-1.737,5.516-6.258,3.779-10.087c-17.077-37.536-39.111-55.923-49.604-68.753    C303.867,197.746,355.92,174.899,324.895,121.983z M106.363,291.124c-10.362,0.376-19.322-2.011-19.921-3.962    c-0.041-0.132-2.794-12.322,62.282-53.272l11.073,21.171C140.263,267.84,121.886,281.189,106.363,291.124z M281.752,190.452    c-13.135,7.101-29.318,14.537-42.412,20.795l-17.016-18.905c51.077-24.99,60.616-18.428,61.703-17.381    C286.089,176.962,284.545,184.448,281.752,190.452z M317.876,157.731c-1.564,5.628-5.272,10.514-9.437,14.547    c-0.02,0.01-0.041,0.02-0.051,0.041c-3.545,3.362-7.467,6.308-8.218,6.786c0.142-5.394-1.189-10.86-5.526-15.065    c-7.304-7.101-20.317-7.639-39.751-1.656c-44.099,13.612-135.424,68.052-165.606,95.806c-9.275,8.523-21.171,21.272-17.402,33.462    c1.869,6.095,6.847,9.732,12.658,11.865c-21.587,9.62-40.563,7.426-52.297-12.973c-22.156-38.46-19.291-104.248-6.664-142.139    c24.473-75.403,83.827-111.627,164.763-95.42c0,0.01,0.01,0.01,0.02,0.01c0,0.01,0.041,0.01,0.051,0.02c0.01,0,0.02,0,0.03,0.01    C267.001,69.698,326.701,125.893,317.876,157.731z" fill="#004239"/>
	</g>
</g>
<g>
	<g>
		<path d="M310.338,321.579c-1.107-4.053-5.282-6.451-9.356-5.343c-4.063,1.107-6.451,5.293-5.343,9.356    c9.17,33.631,5.778,59.845,5.872,62.181c0,25.531-6.939,61.978-30.77,71.527c-13.542,5.611-27.826,4.61-39.984-2.184    c-3.677-2.042-8.31-0.731-10.362,2.946c-2.052,3.667-0.742,8.31,2.936,10.362c16.374,9.14,35.628,10.279,53.17,2.976    c38.318-15.339,40.259-73.03,40.259-84.428C316.758,385,319.936,356.793,310.338,321.579z" fill="#004239"/>
	</g>
</g>
<g>
	<g>
		<path d="M218.233,78.539c-20.643-22.225-63.566-23.321-65.383-23.358c-4.223-0.087-7.685,3.261-7.767,7.469    c-0.083,4.206,3.26,7.684,7.467,7.767c10.58,0.208,40.999,3.936,54.519,18.493c2.863,3.082,7.686,3.261,10.767,0.397    C220.919,86.443,221.097,81.623,218.233,78.539z" fill="#004239"/>
	</g>
</g>
<g>
	<g>
		<path d="M435.655,207.783c-0.105-0.105-8.777-1.468-18.336-0.406c-56.226,5.623-109.365,80.612-96.791,114.559    c0,0,0.01,0.01,0.01,0.02c8.002,22.54,41.958,22.042,66.569,24.919c-8.66,19.263-11.261,22.828-30.1,40.492    c-13.684,12.83-26.616,24.95-24.929,39.598c1.281,11.213,10.874,19.07,20.652,24.726c12.781,7.382,26.27,6.989,38.958-1.128    c25.907-16.578,42.391-61.172,48.68-91.6c22.109,7.49,38.749,13.971,52.357,7.924c0.01-0.01,0.01-0.01,0.01-0.01    c0.66-0.295,1.3-0.63,1.93-0.985h0.01C531.972,343.518,507.579,219.138,435.655,207.783z M360.349,438.495    c-5.669-3.271-12.546-8.239-13.135-13.277c-0.803-7.03,9.884-17.046,20.216-26.737c27.983-26.222,25.724-27.888,45.46-73.437    c5.811,1.26,11.124,2.601,15.969,3.982C427.308,373.472,395.786,458.915,360.349,438.495z M442.928,343.756    c0.427-3.352,0.742-6.613,0.955-9.762c16.396,6.319,24.767,13.105,27.479,18.743C463.211,350.844,453.1,347.108,442.928,343.756z     M487.25,352.563c-5.614-31.592-75.808-45.74-105.629-47.573c-4.195-0.234-7.812,2.946-8.066,7.141    c-0.254,4.206,2.936,7.812,7.141,8.076c5.13,0.315,10.768,0.955,16.863,1.92c-1.73,4.116-3.828,9.221-4.216,10.148    c-16.526-2.111-32.933-2.997-44.109-5.892c0.996-1.117,2.54-2.296,4.968-3.352c3.86-1.676,5.628-6.166,3.952-10.027    c-1.676-3.86-6.166-5.628-10.027-3.952c-6.156,2.682-9.925,6.258-12.251,9.762c-0.02-0.03-0.041-0.061-0.051-0.091    c-0.502-0.684-1.3-2.754-1.3-3.078c-2.357-8.073,3.083-23.03,6.806-30.781c0-0.01,0-0.02,0.01-0.031    c17.671-36.498,49.568-52.768,49.797-52.997c0.041-0.01,0.081-0.03,0.112-0.061c58.189-32.274,103.735,24.188,105.477,89.497    C496.728,330.431,494.835,348.011,487.25,352.563z" fill="#004239"/>
	</g>
</g>
<g>
	<g>
		<path d="M451.35,241.469c-1.361-3.982-5.689-6.095-9.671-4.734c-3.817,1.304-6.143,5.474-4.744,9.671    c2.16,6.314,5.689,19.618,4.907,26.219c-0.536,4.511,2.985,8.513,7.578,8.513c3.81,0,7.101-2.855,7.558-6.725    C458.092,265.052,454.361,250.204,451.35,241.469z" fill="#004239"/>
	</g>
</g>
<g>
	<g>
		<path d="M425.11,233.169c-3.068-2.885-7.893-2.743-10.768,0.325c-6.262,6.552-15.849,18.782-18.692,27.702    c-1.27,4.013,0.945,8.289,4.957,9.569c4.255,1.288,8.344-1.124,9.569-4.968c1.995-6.312,10.723-17.042,15.258-21.861    C428.288,240.885,428.201,236.068,425.11,233.169z" fill="#004239"/>
	</g>
</g>
<g>
</g>
<g>
</g>
<g>
</g>
<g>
</g>
<g>
</g>
<g>
</g>
<g>
</g>
<g>
</g>
<g>
</g>
<g>
</g>
<g>
</g>
<g>
</g>
<g>
</g>
<g>
</g>
<g>
</g>
</svg>
