<?xml version="1.0"?>
<svg xmlns="http://www.w3.org/2000/svg" height="512px" viewBox="0 0 512 512" width="512px"><g id="outline"><path d="m485.3 177.185c-12.506-33.607-35.039-59.565-65.164-75.071a36.465 36.465 0 0 1 -20.029-30.814l-.131-4.9a8 8 0 0 0 -15.151-3.372l-2.193 4.372a36.473 36.473 0 0 1 -31.215 19.411c-35.991 1.336-68.861 17.265-94.4 43.933a167.327 167.327 0 0 0 -127.817-98.538l-103.975-16.106a8 8 0 0 0 -8.868 10.268l31.081 100.517a167.419 167.419 0 0 0 79.548 97.4 166.992 166.992 0 0 0 -23.34 12.59c-30.083 19.512-50.523 47.148-59.11 79.924a36.467 36.467 0 0 1 -25.73 26.249l-4.746 1.19a8 8 0 0 0 0 15.524l4.746 1.19a36.467 36.467 0 0 1 25.73 26.248c8.587 32.776 29.027 60.412 59.11 79.924 29.127 18.892 65.212 28.876 104.354 28.876 67.246 0 123.006-28.651 150.073-75.871.148 0 .3.013.442.013a49.242 49.242 0 0 0 7.921-.643c60.475-9.855 108.128-61.27 124.365-134.18 8.509-38.206 6.606-75.598-5.501-108.134zm-239.991-32.794a186.481 186.481 0 0 0 -23.309 40.026l-6.559-5.664 1.667-81.276a151.659 151.659 0 0 1 28.201 46.914zm-175.723-4.242 61.2-13.362 22.143 19.122-73.552 12.371a151.412 151.412 0 0 1 -9.791-18.131zm15.3-53-31.193 5.8-13.81-44.662zm-34.546-50.972 46.195 7.157-1.192 31.706zm12.384 85.981-4.274-13.822 41.943-7.794 15.254 13.174-51.969 11.347c-.321-.963-.653-1.93-.954-2.905zm102.189-62.925-1.529 74.567-22.143-19.122 4.308-62.491a151.177 151.177 0 0 1 19.364 7.046zm15.837 8.147a151.607 151.607 0 0 1 20.666 14.735l-1.7 83.058-20.6-17.793zm-50.987-18.842-3.658 53.068-15.255-13.174 1.6-42.631 14.3 2.216c1.009.156 2.01.344 3.013.521zm-40.019 124.224 78.908-13.272 20.6 17.792-81.924 13.78a151.531 151.531 0 0 1 -17.584-18.3zm35.087 31.582 80.15-13.481 10.94 9.448q-1.29 3.833-2.445 7.77c-1.819-.042-3.64-.081-5.476-.081a208.113 208.113 0 0 0 -60.219 8.6 150.88 150.88 0 0 1 -22.95-12.256zm-12.478 45.956a155.924 155.924 0 0 1 37.125-17.457c.234-.064.461-.145.688-.23a191.223 191.223 0 0 1 57.834-8.613c68.015 0 122.867 31.486 143.15 82.171a32.742 32.742 0 0 1 -9.816 37.829h-8.065a48.05 48.05 0 0 0 -29.969-61.5c-7.423-10.07-18.678-18.035-32.016-22.594a71.063 71.063 0 0 0 -24.924-3.867c-10.548-10.106-26.579-16.039-43.77-16.039-17.585 0-33.9 6.182-44.434 16.684a71.916 71.916 0 0 0 -18.188 4.066c-20.315 7.363-35.133 22.413-39.039 39.184a47.769 47.769 0 0 0 -28.929 44.066h-24.794a53.472 53.472 0 0 0 12.808-23.146c7.559-28.854 25.657-53.254 52.339-70.554zm69.3 160.045-7.82-7.822a36.911 36.911 0 0 0 -25.133-10.842l-36.437-1.2a8.074 8.074 0 0 0 -1.676.125c-.05-.017-.1-.042-.147-.058a31.858 31.858 0 0 1 -22.44-30.548h227.726a32 32 0 0 1 .087 31.8l-49.956.126a36.887 36.887 0 0 0 -33.012 20.491 8 8 0 1 0 14.31 7.156 20.964 20.964 0 0 1 18.753-11.647l28.191-.072a8.014 8.014 0 0 0 -2.477 2.415c-5.322 8.149-14.622 14.958-25.516 18.681a53.813 53.813 0 0 1 -22.213 2.834 7.992 7.992 0 0 0 -6.777 2.708c-7.262 8.329-20.492 13.5-34.526 13.5-14.156 0-27.443-5.239-34.676-13.672a8 8 0 0 0 -5.767-2.786 55.294 55.294 0 0 1 -16.727-3.335c-12.01-4.353-21.814-12.527-26.507-21.5l29.3.964a20.992 20.992 0 0 1 14.311 6.162l7.82 7.82a8 8 0 1 0 11.314-11.312zm-71.213-96.893c.052-.016.1-.042.151-.059a8.03 8.03 0 0 0 1.4.129h.268l36.4-1.2a36.931 36.931 0 0 0 25.176-10.843l7.82-7.821a8 8 0 1 0 -11.314-11.312l-7.82 7.819a21.012 21.012 0 0 1 -14.35 6.164l-29.26.963c4.694-8.97 14.5-17.144 26.507-21.5a55.294 55.294 0 0 1 16.727-3.335 8 8 0 0 0 5.767-2.786c7.235-8.432 20.522-13.671 34.678-13.671 14.034 0 27.264 5.174 34.526 13.5a8.015 8.015 0 0 0 6.777 2.708 53.819 53.819 0 0 1 22.213 2.834c10.894 3.723 20.194 10.532 25.516 18.681a8.014 8.014 0 0 0 2.477 2.415l-28.18-.072a20.968 20.968 0 0 1 -18.764-11.647 8 8 0 0 0 -14.31 7.156 36.891 36.891 0 0 0 33.023 20.491l49.945.126a32 32 0 0 1 -.087 31.8l-227.726.008a31.858 31.858 0 0 1 22.44-30.548zm97.56 166.548c-36.045 0-69.119-9.094-95.647-26.3-26.682-17.3-44.78-41.7-52.339-70.554a53.472 53.472 0 0 0 -12.808-23.146h24.794a47.769 47.769 0 0 0 28.929 44.066c3.906 16.771 18.724 31.821 39.039 39.184a71.916 71.916 0 0 0 18.188 4.066c10.529 10.502 26.849 16.684 44.434 16.684 17.191 0 33.222-5.933 43.766-16.037a71 71 0 0 0 24.924-3.863c13.338-4.559 24.593-12.524 32.016-22.594a48.05 48.05 0 0 0 29.973-61.506h8.065a32.742 32.742 0 0 1 9.816 37.829c-20.283 50.685-75.135 82.171-143.15 82.171zm267.184-198.159c-14.57 65.425-56.216 111.7-108.989 121.433a49.322 49.322 0 0 0 3.356-16.882l18.587-21.492a197.511 197.511 0 0 0 12.686-16.332 8 8 0 0 0 -13.135-9.136 181.484 181.484 0 0 1 -11.653 15l-10.353 11.968a48.539 48.539 0 0 0 -9.459-14.4 48.675 48.675 0 0 0 9.781-51.774 130.054 130.054 0 0 0 -12.552-23.812l14.847-66.675a8 8 0 1 0 -15.617-3.478l-12 53.9c-15.779-17.19-36.235-30.646-60.035-39.579a180.4 180.4 0 0 1 19.2-40.268 8 8 0 0 0 -13.48-8.622 196.538 196.538 0 0 0 -20.927 43.927 205.117 205.117 0 0 0 -35.535-6.559c19.812-62.844 66.946-104.209 122.109-106.257a53.1 53.1 0 0 0 35.267-15.082 53.105 53.105 0 0 0 25.535 28.623c26.52 13.649 46.4 36.618 57.491 66.424 11.024 29.632 12.711 63.89 4.876 99.073z" fill="#004239"/><path d="m378.265 128.191a8 8 0 0 0 -9.547 6.07l-8.908 40a8 8 0 1 0 15.617 3.478l8.908-40a8 8 0 0 0 -6.07-9.548z" fill="#004239"/><path d="m339.226 114.126-20.7 19.14c-4.589 4.243-9.023 8.754-13.178 13.406a8 8 0 1 0 11.935 10.656c3.815-4.272 7.888-8.416 12.1-12.314l20.7-19.14a8 8 0 1 0 -10.861-11.748z" fill="#004239"/><path d="m428.015 250.312a8 8 0 0 0 -9.091 6.735l-.876 5.887a180.239 180.239 0 0 1 -17.2 54.362 8 8 0 1 0 14.3 7.174 196.172 196.172 0 0 0 18.723-59.18l.877-5.886a8 8 0 0 0 -6.733-9.092z" fill="#004239"/><path d="m434.308 198.7c-.455-2.78-.976-5.583-1.55-8.332a8 8 0 1 0 -15.663 3.266c.527 2.524 1.006 5.1 1.424 7.655a181.327 181.327 0 0 1 2.267 22.981 8 8 0 0 0 7.99 7.726h.28a8 8 0 0 0 7.72-8.269 197.325 197.325 0 0 0 -2.467-25.019z" fill="#004239"/><path d="m410.7 170.65a8 8 0 1 0 15.1-5.3c-1.051-3-2.192-6-3.391-8.952l-9.526-23.413a8 8 0 0 0 -14.82 6.03l9.526 23.413c1.093 2.707 2.141 5.472 3.111 8.222z" fill="#004239"/><path d="m181.657 333.657 4.687-4.687a30.627 30.627 0 0 1 43.313 0l4.686 4.686a8 8 0 1 0 11.314-11.314l-4.686-4.686a46.628 46.628 0 0 0 -65.941 0l-4.687 4.687a8 8 0 0 0 11.314 11.314z" fill="#004239"/><path d="m240.97 386.344 4.687-4.687a8 8 0 1 0 -11.314-11.314l-4.687 4.687a30.627 30.627 0 0 1 -43.313 0l-4.686-4.686a8 8 0 0 0 -11.314 11.314l4.686 4.686a46.628 46.628 0 0 0 65.941 0z" fill="#004239"/></g></svg>
