<?xml version="1.0"?>
<svg xmlns="http://www.w3.org/2000/svg" id="icons" enable-background="new 0 0 64 64" height="512px" viewBox="0 0 64 64" width="512px"><g><g><path d="m11.004 10.492c-.553 0-1-.447-1-1 0-.552-.448-1-1-1s-1 .448-1 1c0 .553-.447 1-1 1s-1-.447-1-1c0-1.654 1.346-3 3-3s3 1.346 3 3c0 .553-.447 1-1 1z" fill="#004239"/></g><g><path d="m9.004 21.494c-1.654 0-3-1.346-3-3 0-.553.447-1 1-1s1 .447 1 1c0 .552.448 1 1 1s1-.448 1-1c0-.553.447-1 1-1s1 .447 1 1c0 1.654-1.346 3-3 3z" fill="#004239"/></g><g><path d="m7.004 19.494c-.553 0-1-.447-1-1v-9.002c0-.553.447-1 1-1s1 .447 1 1v9.002c0 .553-.447 1-1 1z" fill="#004239"/></g><g><path d="m11.004 19.494c-.553 0-1-.447-1-1v-9.002c0-.553.447-1 1-1s1 .447 1 1v9.002c0 .553-.447 1-1 1z" fill="#004239"/></g><g><path d="m9.004 8.492c-.553 0-1-.447-1-1v-1c0-.553.447-1 1-1s1 .447 1 1v1c0 .553-.447 1-1 1z" fill="#004239"/></g><g><path d="m9.004 51.506c-.553 0-1-.447-1-1v-30.012c0-.553.447-1 1-1s1 .447 1 1v30.012c0 .553-.447 1-1 1z" fill="#004239"/></g><g><path d="m24 14.496c-.553 0-1-.447-1-1 0-.552-.448-1-1-1s-1 .448-1 1c0 .553-.447 1-1 1s-1-.447-1-1c0-1.654 1.346-3 3-3s3 1.346 3 3c0 .553-.447 1-1 1z" fill="#004239"/></g><g><path d="m22 25.498c-1.654 0-3-1.346-3-3 0-.553.447-1 1-1s1 .447 1 1c0 .552.448 1 1 1s1-.448 1-1c0-.553.447-1 1-1s1 .447 1 1c0 1.654-1.346 3-3 3z" fill="#004239"/></g><g><path d="m20 23.498c-.553 0-1-.447-1-1v-9.002c0-.553.447-1 1-1s1 .447 1 1v9.002c0 .553-.447 1-1 1z" fill="#004239"/></g><g><path d="m24 23.498c-.553 0-1-.447-1-1v-9.002c0-.553.447-1 1-1s1 .447 1 1v9.002c0 .553-.447 1-1 1z" fill="#004239"/></g><g><path d="m22 12.496c-.553 0-1-.447-1-1v-1c0-.553.447-1 1-1s1 .447 1 1v1c0 .553-.447 1-1 1z" fill="#004239"/></g><g><path d="m22 51.506c-.553 0-1-.447-1-1v-26.008c0-.553.447-1 1-1s1 .447 1 1v26.008c0 .553-.447 1-1 1z" fill="#004239"/></g><g><path d="m13.005 51.506c-.03 0-.061-.001-.092-.004-.55-.05-.955-.536-.905-1.087l3-33.006c.051-.549.529-.953 1.087-.905.55.05.955.536.905 1.087l-3 33.006c-.048.518-.483.909-.995.909z" fill="#004239"/></g><g><path d="m7.002 51.506c-.512 0-.947-.391-.995-.909l-3-33.006c-.05-.551.355-1.037.905-1.087.56-.046 1.036.356 1.087.905l3 33.006c.05.551-.355 1.037-.905 1.087-.031.003-.062.004-.092.004z" fill="#004239"/></g><g><path d="m63 51.517h-62c-.553 0-1-.447-1-1s.447-1 1-1h62c.553 0 1 .447 1 1s-.447 1-1 1z" fill="#004239"/></g><g><path d="m24.001 51.517c-.046 0-.092-.003-.139-.01-.547-.075-.929-.581-.853-1.128l5-36.014c.075-.547.577-.935 1.128-.853.547.075.929.581.853 1.128l-5 36.014c-.069.5-.498.863-.989.863z" fill="#004239"/></g><g><path d="m21.999 51.506c-.458 0-.872-.317-.976-.783l-4-18.003c-.119-.539.221-1.073.76-1.193.538-.112 1.073.221 1.193.76l4 18.003c.119.539-.221 1.073-.76 1.193-.072.015-.145.023-.217.023z" fill="#004239"/></g><g><path d="m29 55.509h-27c-.553 0-1-.447-1-1s.447-1 1-1h27c.553 0 1 .447 1 1s-.447 1-1 1z" fill="#004239"/></g><g><path d="m61 58.508h-24c-.553 0-1-.447-1-1s.447-1 1-1h24c.553 0 1 .447 1 1s-.447 1-1 1z" fill="#004239"/></g><g><path d="m37.505 51.519c-1.381 0-2.505-1.124-2.505-2.505s1.124-2.505 2.505-2.505c.553 0 1 .447 1 1s-.447 1-1 1c-.278 0-.505.227-.505.505s.227.505.505.505c.553 0 1 .447 1 1s-.447 1-1 1z" fill="#004239"/></g><g><path d="m56.505 51.519c-.553 0-1-.447-1-1s.447-1 1-1c.278 0 .505-.227.505-.505s-.227-.505-.505-.505c-.553 0-1-.447-1-1s.447-1 1-1c1.381 0 2.505 1.124 2.505 2.505s-1.124 2.505-2.505 2.505z" fill="#004239"/></g><g><path d="m56.505 48.509h-19c-.553 0-1-.447-1-1s.447-1 1-1h19c.553 0 1 .447 1 1s-.447 1-1 1z" fill="#004239"/></g><g><path d="m47.005 48.509c-.553 0-1-.447-1-1 0-6.063 4.933-10.995 10.995-10.995.553 0 1 .447 1 1s-.447 1-1 1c-4.96 0-8.995 4.035-8.995 8.995 0 .553-.447 1-1 1z" fill="#004239"/></g><g><path d="m47.005 48.509c-.553 0-1-.447-1-1s.447-1 1-1c4.96 0 8.995-4.035 8.995-8.995 0-.553.447-1 1-1s1 .447 1 1c0 6.062-4.933 10.995-10.995 10.995z" fill="#004239"/></g><g><path d="m46.998 48.509c-.553 0-1-.447-1-1 0-4.96-4.035-8.995-8.995-8.995-.553 0-1-.447-1-1s.447-1 1-1c6.063 0 10.995 4.933 10.995 10.995 0 .553-.447 1-1 1z" fill="#004239"/></g><g><path d="m46.998 48.509c-6.063 0-10.995-4.933-10.995-10.995 0-.553.447-1 1-1s1 .447 1 1c0 4.96 4.035 8.995 8.995 8.995.553 0 1 .447 1 1s-.447 1-1 1z" fill="#004239"/></g><g><path d="m49.93 41.441c-.553 0-1-.447-1-1 0-2.401-.937-4.66-2.637-6.36-.391-.391-.391-1.023 0-1.414s1.023-.391 1.414 0c2.078 2.078 3.223 4.839 3.223 7.774 0 .553-.448 1-1 1z" fill="#004239"/></g><g><path d="m44.07 41.441c-.553 0-1-.447-1-1 0-2.936 1.145-5.696 3.223-7.774.391-.391 1.023-.391 1.414 0s.391 1.023 0 1.414c-1.7 1.7-2.637 3.959-2.637 6.36 0 .553-.447 1-1 1z" fill="#004239"/></g><g><path d="m41.002 21.511c-.256 0-.512-.098-.707-.293l-2-2c-.391-.391-.391-1.023 0-1.414s1.023-.391 1.414 0l2 2c.391.391.391 1.023 0 1.414-.195.195-.451.293-.707.293z" fill="#004239"/></g><g><path d="m41.002 21.511c-.256 0-.512-.098-.707-.293-.391-.391-.391-1.023 0-1.414l3-3c.391-.391 1.023-.391 1.414 0s.391 1.023 0 1.414l-3 3c-.195.195-.451.293-.707.293z" fill="#004239"/></g><g><path d="m52.001 24.512c-.256 0-.512-.098-.707-.293l-1-1c-.391-.391-.391-1.023 0-1.414s1.023-.391 1.414 0l1 1c.391.391.391 1.023 0 1.414-.195.195-.451.293-.707.293z" fill="#004239"/></g><g><path d="m52.001 24.512c-.256 0-.512-.098-.707-.293-.391-.391-.391-1.023 0-1.414l2-2c.391-.391 1.023-.391 1.414 0s.391 1.023 0 1.414l-2 2c-.195.195-.451.293-.707.293z" fill="#004239"/></g></g></svg>
