<?xml version="1.0"?>
<svg xmlns="http://www.w3.org/2000/svg" height="512px" viewBox="0 -53 458.66667 458" width="512px"><path d="m458.667969 192.332031h-149.335938c-23.464843 0-42.664062-19.199219-42.664062-42.664062v-106.667969c0-23.464844 19.199219-42.667969 42.664062-42.667969h106.667969c23.464844 0 42.667969 19.203125 42.667969 42.667969zm-149.335938-170.664062c-11.730469 0-21.332031 9.597656-21.332031 21.332031v106.667969c0 11.730469 9.601562 21.332031 21.332031 21.332031h128v-128c0-11.734375-9.597656-21.332031-21.332031-21.332031zm0 0" fill="#004239"/><path d="m320 352.332031v-21.332031c64.667969 0 117.332031-52.667969 117.332031-117.332031v-32h21.335938v32c0 76.398437-62.269531 138.664062-138.667969 138.664062zm0 0" fill="#004239"/><path d="m192 192.332031h-149.332031c-23.46875 0-42.667969-19.199219-42.667969-42.664062v-106.667969c0-23.464844 19.199219-42.667969 42.667969-42.667969h106.664062c23.46875 0 42.667969 19.203125 42.667969 42.667969zm-149.332031-170.664062c-11.734375 0-21.335938 9.597656-21.335938 21.332031v106.667969c0 11.730469 9.601563 21.332031 21.335938 21.332031h128v-128c0-11.734375-9.601563-21.332031-21.335938-21.332031zm0 0" fill="#004239"/><path d="m53.332031 352.332031v-21.332031c64.667969 0 117.335938-52.667969 117.335938-117.332031v-32h21.332031v32c0 76.398437-62.265625 138.664062-138.667969 138.664062zm0 0" fill="#004239"/></svg>
